<svg xmlns="http://www.w3.org/2000/svg" viewBox="0 0 681.53 182.84"><defs><style>.cls-1{fill:#fff;}.cls-2{fill:#c6162c;}.cls-3{fill:#ffde00;}</style></defs><g id="Layer_2" data-name="Layer 2"><g id="Layer_4" data-name="Layer 4"><path class="cls-1" d="M465.32,105.4c5-.27,14.64-4.43,17.06-12,1.59-5,.32-11.41-.73-14.41a4.48,4.48,0,0,0-5-3c-2.7.52-5.66,2.57-11.37,8.68C453.87,97,460.35,105.67,465.32,105.4Z"/><path class="cls-1" d="M679.94,131.34c-5.37,15.18-15,21.14-19.87,17.73-4.37-3,1.8-19.47,4-24.87a35.06,35.06,0,0,0,1.51-4.58c5-20.12-7.43-21.75-17.45-22.39-10.47-.67-28.34,18.67-34.25,23.77s-6.85.4-7.25-8.86-.8-12.23-12.22-12.49-21.76,7.92-25.38,10.2a9.81,9.81,0,0,1-7.53,1.08,89.52,89.52,0,0,0-33.17-4.7c-19.07.8-34.11,15.58-47.28,31s-15.75,8.06-14.27-5.77.84-17.6-6-19.61c-3.14-.93-7.66.92-11.64,3.18a52.88,52.88,0,0,0-11.61,9.08c-5.43,5.58-17.27,17.08-26.57,21.58-12.49,6-14.51.81-14.91-14.5s2.15-18.54-9.14-19.61S355.05,137,348.47,140.74s-6.44-8.86-6.44-8.86c1.07-19.61.13-19.48-4.44-21.89s-14.37,10.2-14.37,10.2S284.14,156.32,278.63,152s.81-17.87,8.46-33.58,3.77-23.51-.94-27.13-11.55,1.88-14.37,9c-1.13,2.85-2.39,5.73-3.5,8.16A58.1,58.1,0,0,1,257,125.13c-3.53,3.61-7.87,7.05-12.35,8.23-10.74,2.82-10.47-3.5-5.5-18.13s12.89-23.78,2.41-31.7-31.18,9.21-43.51,15.71c-14.77,7.79-9,11.55-9,11.55,3.13,4,9.76-1.34,14.86-.62s-5.1,20.77-10.2,34.2-8.33,23.37,1.88,34.29,26.14-3,26.14-3S244.25,162.5,253.25,160s4.57,6.45,4.57,6.45-3.36,9.67,1.2,14.37,12.23-2.69,12.23-2.69c13.16-4.43,29.54-20.55,36.8-25.38s8.19-.67,8.19-.67,2.55,14.63,4,24.57,10.88,4.57,10.88,4.57,24.71-20.68,30.42-24.65,6,.54,6,.54.94,12.9,5.71,21.09,11.75,2.08,11.75,2.08l30.69-19.65c7.14-4.85,11.82-8.51,12.18,2.77.43,13.53.18,26,19.16,14,22.06-13.95,27.18-16.56,27.18-16.56,8.33-3.23,7,4.16,7,4.16-.53,13.83,9.81,16.12,9.81,16.12,14.64,5.91,32.23-6.85,32.23-6.85l38.24-26.86a1.1,1.1,0,0,1,1.73,1c-2.35,30.51.71,34.84,5.43,34.08s12.22-7.82,24.44-22.06c5.17-6,8.61-9,10.86-10.41a2.46,2.46,0,0,1,3.77,2.16c-.36,14.1,3.64,23.63,9.28,28.26,6,5,17.19-.67,17.19-.67s19.88-11.82,36.4-25.52S679.94,131.34,679.94,131.34Zm-143.08,3c-1.56,4.95-7.82,7.68-11,7.86s-7.41-5.54,0-13.57c3.69-4,5.61-5.36,7.36-5.7a2.88,2.88,0,0,1,3.23,2C537.07,126.87,537.9,131.1,536.86,134.36Z"/><path class="cls-1" d="M541.56,98.37s1.61,1.79,11.46-6,7.26-15.2.54-15.2c-5.82,0-9,4.62-6.19,9.21C550.6,91.57,538,95.5,541.56,98.37Z"/><path class="cls-2" d="M462.8,104.22c5-.27,14.64-4.43,17.06-12,1.6-5,.32-11.41-.73-14.41a4.47,4.47,0,0,0-5-3c-2.71.52-5.66,2.57-11.37,8.68C451.35,95.8,457.84,104.49,462.8,104.22Z"/><path class="cls-2" d="M675,127.32c-5.37,15.18-15,21.14-19.88,17.73-4.36-3,1.81-19.48,4-24.88a34.44,34.44,0,0,0,1.51-4.57c5-20.12-7.43-21.75-17.45-22.39-10.48-.67-28.34,18.67-34.25,23.77s-6.85.4-7.25-8.86-.81-12.23-12.22-12.5-21.76,7.93-25.39,10.21a9.78,9.78,0,0,1-7.52,1.08,89.52,89.52,0,0,0-33.17-4.7c-19.07.8-34.12,15.58-47.28,31s-15.75,8.06-14.27-5.77.84-17.6-6-19.61c-3.14-.93-7.66.91-11.64,3.18a52.35,52.35,0,0,0-11.61,9.08c-5.44,5.58-17.27,17.08-26.58,21.58-12.49,6.05-14.5.81-14.91-14.5s2.15-18.54-9.13-19.61S350.12,133,343.54,136.72s-6.45-8.86-6.45-8.86c1.08-19.61.14-19.48-4.43-21.89s-14.37,10.2-14.37,10.2S279.21,152.3,273.7,148s.81-17.86,8.46-33.57,3.76-23.51-.94-27.13-11.55,1.88-14.37,9c-1.13,2.85-2.39,5.73-3.5,8.16a58.1,58.1,0,0,1-11.28,16.65c-3.54,3.61-7.87,7-12.35,8.23-10.74,2.82-10.48-3.5-5.51-18.14s12.9-23.77,2.42-31.69-31.18,9.21-43.51,15.71c-14.78,7.79-9,11.55-9,11.55,3.13,4,9.76-1.34,14.86-.62s-5.1,20.77-10.21,34.2-8.32,23.37,1.88,34.29,26.15-3,26.15-3,22.52-13.12,31.52-15.67,4.56,6.45,4.56,6.45-3.35,9.67,1.21,14.37,12.22-2.69,12.22-2.69c13.17-4.43,29.55-20.55,36.8-25.38s8.2-.68,8.2-.68,2.55,14.64,4,24.58,10.87,4.57,10.87,4.57,24.72-20.68,30.43-24.65,6,.54,6,.54.94,12.89,5.71,21.09,11.75,2.08,11.75,2.08l30.69-19.65c7.14-4.86,11.82-8.51,12.18,2.77.42,13.53.17,26,19.16,14,22.06-14,27.18-16.57,27.18-16.57,8.33-3.22,7,4.17,7,4.17-.54,13.83,9.8,16.11,9.8,16.11,14.64,5.91,32.24-6.85,32.24-6.85l38.23-26.85a1.11,1.11,0,0,1,1.74,1c-2.35,30.51.71,34.83,5.42,34.08s12.23-7.82,24.45-22.06c5.17-6,8.61-9,10.86-10.41a2.45,2.45,0,0,1,3.76,2.16c-.35,14.1,3.65,23.63,9.28,28.26,6.05,5,17.2-.67,17.2-.67s19.87-11.82,36.39-25.52S675,127.32,675,127.32Zm-143.08,3c-1.56,4.94-7.82,7.68-11,7.86s-7.42-5.54,0-13.57c3.7-4,5.62-5.36,7.37-5.7a2.89,2.89,0,0,1,3.23,1.95C532.14,122.85,533,127.08,531.93,130.34Z"/><path class="cls-2" d="M539.05,97.19s1.61,1.79,11.46-6S557.76,76,551,76c-5.82,0-9,4.63-6.18,9.21C548.09,90.39,535.46,94.33,539.05,97.19Z"/><polygon class="cls-3" points="183.01 11.41 195.72 11.41 195.72 56.58 205.44 56.58 205.44 11.41 218.15 11.41 218.15 1.69 183.01 1.69 183.01 11.41"/><polygon class="cls-3" points="366.72 34.83 350.26 1.65 347.1 1.65 347.1 1.65 339.94 1.65 339.94 56.58 349.67 56.58 349.67 23.2 366.65 56.58 366.72 56.58 369.89 56.58 376.45 56.58 376.45 1.65 366.72 1.65 366.72 34.83"/><rect class="cls-3" x="393.48" y="1.69" width="9.72" height="54.94"/><rect class="cls-3" x="615.72" y="1.59" width="9.72" height="55.03"/><polygon class="cls-3" points="429.64 1.69 419.92 1.69 419.92 56.63 451.65 56.63 451.65 46.9 429.64 46.9 429.64 1.69"/><polygon class="cls-3" points="476.03 1.69 466.31 1.69 466.31 56.63 498.04 56.63 498.04 46.9 476.03 46.9 476.03 1.69"/><polygon class="cls-3" points="514.41 2.29 514.41 42.13 514.41 56.63 546.14 56.63 546.14 46.9 524.13 46.9 524.13 42.13 524.13 32.55 546.14 32.55 546.14 22.83 524.13 22.83 524.13 11.41 546.14 11.41 546.14 1.69 514.41 1.69 514.41 2.29"/><path class="cls-3" d="M250.59,0c-12.34,0-22,12.7-22,28.91s9.67,28.91,22,28.91,22-12.7,22-28.91S262.93,0,250.59,0Zm0,48.1c-6.66,0-12.29-8.79-12.29-19.19s5.63-19.19,12.29-19.19,12.29,8.79,12.29,19.19S257.25,48.1,250.59,48.1Z"/><path class="cls-3" d="M324.42,17.85A16.18,16.18,0,0,0,308.25,1.69H288V56.58h9.73V34h6c3.41,4.62,9.48,13.53,12.9,22.61h10.26c-2.8-9-8.06-17.85-12.2-24A16.18,16.18,0,0,0,324.42,17.85Zm-16.17,6.44H297.77V11.41h10.48a6.44,6.44,0,0,1,0,12.88Z"/><path class="cls-3" d="M573.29,34h6c3.41,4.62,9.48,13.53,12.9,22.61h10.26c-2.8-9-8.06-17.85-12.2-24a16.16,16.16,0,0,0-6.46-31H563.56V56.58h9.73Zm0-22.61h10.48a6.44,6.44,0,1,1,0,12.88H573.29Z"/><path class="cls-3" d="M652,43.38H667.6l3.81,13.25h10.12L665.72,1.69H653.89L638.08,56.63H648.2Zm7.8-27.08,5,17.36h-10Z"/><path class="cls-1" d="M39,75.17H0v6.6H38.93C38.94,79.56,38.94,77.36,39,75.17Z"/><path class="cls-1" d="M38.92,96.57H0v6.12H38.92C38.91,100.67,38.92,98.62,38.92,96.57Z"/><path class="cls-1" d="M39,85.87H0v6.6H38.93C38.94,90.27,38.94,88.06,39,85.87Z"/><path class="cls-1" d="M123.64,61.32h-7.43c-7.24,0-13.36,3.79-15.42,10.35h37.87C136.79,65.14,130.78,61.32,123.64,61.32Z"/><path class="cls-1" d="M34.64,64.8c-4.52-4-11.51-3.38-13.08-3.48h-5C11,61.32,2.94,63.42.64,71.06H38.48A11.79,11.79,0,0,0,34.64,64.8Z"/><polygon class="cls-1" points="99.93 92.47 139.28 92.47 139.28 85.87 99.98 85.87 99.93 92.47"/><path class="cls-1" d="M139.27,75.77h-25.4v0H100.08c0,.2,0,.39,0,.59l0,5.38h39.27V76C139.28,75.92,139.27,75.85,139.27,75.77Z"/><polygon class="cls-1" points="99.86 102.69 113.87 102.69 139.28 102.69 139.28 96.57 99.9 96.57 99.86 102.69"/><path class="cls-1" d="M99.84,106.8h0l0,3.17v11.86a48.24,48.24,0,0,1-5.65,10.57c-4,5.67-9.45,8.45-12.71,10.75a23.86,23.86,0,0,1-19.84,1.68c-6.72-2.43-12.1-6-13.53-8.05-5.3-4.83-9.14-15-9.14-15-.13-5.37.12-9.67,0-15H0v19c3.78,8.38,7.56,13.89,11.33,22.28,2.74,5,14.67,21.34,14.67,21.34a166.74,166.74,0,0,0,19.65,7.06,91.5,91.5,0,0,0,15.6,3,92.52,92.52,0,0,0,17.67,0,99,99,0,0,0,16.49-3c9.68-2.62,15.22-5.33,21.34-10.35,5-4.07,7.29-8.31,11-15.17,3.49-6.53,8.87-15.47,11.56-28.66V106.8H99.84Z"/><path class="cls-1" d="M118.07,18.36,104.58,4.87H33.78L20.29,18.36V49.28H48.74v9.18l2.74,1.78-2.74,1.65v9.18l2.74.82-2.74,1.65v9l2.74,2-2.74,1.24V96.3l2.74,1.37L48.74,98.9v10.28l2.74,1.1-2.74,1.51v20.56h35.5l5.35-16.45V101.37l-3-1.37,3-1V87.66l-2.74-1.1,2.74-1.51v-10L87.39,74l2.2-1.64v-23h28.48ZM62.62,10.63H75.74L87.81,22.25V43.52H50.55V22.25ZM44.79,43.52H26.05V20.75L36.17,10.63h.06l-.69.69,9.25,9.25ZM43,10.63H54.31l-5.77,5.55ZM62.67,49.28H75.38l-20.8,6.47-.12-6.47Zm18.78,61-27,8.5v-6.85l27-8.09Zm0-13.15-27,8.5V98.76l27-8.08Zm0-12.75-27,8.5V86l27-8.08Zm0-12.72-27,8.5V73.29l27-8.09Zm0-11.92-27,8.5V61.37l27-8.09Zm2.6-49.1H95.37l-5.55,5.55Zm28.26,32.89H93.57v-23l9.25-9.25-.69-.69h.07l10.11,10.12Z"/></g></g></svg>