<svg xmlns="http://www.w3.org/2000/svg" viewBox="0 0 766.24 259.84"><defs><style>.cls-1{fill:#2c398c;}.cls-2{fill:#cc252c;}</style></defs><g id="Layer_2" data-name="Layer 2"><g id="definitivo"><path class="cls-1" d="M133.82,0H33.71L18.49,15.22V58.4H149V15.22ZM46.49,53.75H23.14V17.14l8.5-8.5A46.89,46.89,0,0,1,46.49,19.33ZM35.13,5.15l.5-.5H63.17A51.59,51.59,0,0,0,48.65,14.84,52.07,52.07,0,0,0,35.13,5.15Zm81.26,48.6H51.14V19c2.35-2.53,12.44-12.36,28-14h0l1.14-.1c.85-.07,1.71-.13,2.59-.15v0h1.72v0c.89,0,1.75.08,2.6.15l1.14.1h0C103.94,6.61,114,16.44,116.39,19Zm-12-49.1H131.9l.5.5a52.07,52.07,0,0,0-13.52,9.69A51.59,51.59,0,0,0,104.36,4.65Zm40,49.1H121V19.33A46.76,46.76,0,0,1,135.89,8.64l8.5,8.5Z"/><polygon class="cls-1" points="110.27 259.84 57.26 259.84 44.03 238.25 47.99 235.82 59.86 255.19 107.67 255.19 119.54 235.82 123.5 238.25 110.27 259.84"/><polygon class="cls-1" points="622.29 201.52 614.54 201.52 614.54 249.61 614.58 249.61 614.58 249.91 641.73 249.91 641.73 242.16 622.29 242.16 622.29 201.52"/><polygon class="cls-1" points="653.2 201.52 639.51 201.52 639.51 209.26 653.2 209.26 653.2 249.61 660.94 249.61 660.94 209.26 674.33 209.26 674.33 201.52 660.94 201.52 653.2 201.52"/><path class="cls-1" d="M714.35,222.72a21.23,21.23,0,0,0-21.21-21.2H676.65v48.39h17a20.69,20.69,0,0,0,20.66-20.66Zm-7.75,6.53a12.92,12.92,0,0,1-12.91,12.91H684.4v-32.9h8.74a13.48,13.48,0,0,1,13.46,13.46Z"/><path class="cls-1" d="M748.39,227.48h-.16l-9.13-26h-8.8l-17,48.39h8.21l5.16-14.68h16.08l5.16,14.68h8.21l-7.72-22Zm-19,0,5.32-15.13L740,227.48Z"/><rect class="cls-1" x="758.42" y="242.16" width="7.82" height="7.75"/><polygon class="cls-1" points="184.76 13.18 198.93 13.18 198.93 63.54 209.78 63.54 209.78 13.18 223.95 13.18 223.95 2.34 184.76 2.34 184.76 13.18"/><polygon class="cls-1" points="389.62 39.29 371.26 2.29 367.73 2.29 367.73 2.29 359.76 2.29 359.76 63.54 370.6 63.54 370.6 26.33 389.54 63.54 389.62 63.54 393.15 63.54 400.46 63.54 400.46 2.29 389.62 2.29 389.62 39.29"/><rect class="cls-1" x="419.45" y="2.34" width="10.84" height="61.26"/><rect class="cls-1" x="667.26" y="2.23" width="10.84" height="61.37"/><polygon class="cls-1" points="459.78 2.34 448.94 2.34 448.94 63.6 484.32 63.6 484.32 52.76 459.78 52.76 459.78 2.34"/><polygon class="cls-1" points="511.51 2.34 500.67 2.34 500.67 63.6 536.05 63.6 536.05 52.76 511.51 52.76 511.51 2.34"/><polygon class="cls-1" points="554.3 3 554.3 47.43 554.3 63.6 589.69 63.6 589.69 52.76 565.14 52.76 565.14 47.43 565.14 36.75 589.69 36.75 589.69 25.91 565.14 25.91 565.14 13.18 589.69 13.18 589.69 2.34 554.3 2.34 554.3 3"/><path class="cls-1" d="M260.12.45c-13.76,0-24.54,14.17-24.54,32.24s10.78,32.24,24.54,32.24,24.54-14.16,24.54-32.24S273.88.45,260.12.45Zm0,53.64c-7.43,0-13.7-9.8-13.7-21.4s6.27-21.39,13.7-21.39,13.7,9.8,13.7,21.39S267.55,54.09,260.12,54.09Z"/><path class="cls-1" d="M342.44,20.36a18,18,0,0,0-18-18H301.88v61.2h10.85V38.39h6.67c3.8,5.15,10.57,15.09,14.38,25.21h11.44c-3.12-10-9-19.9-13.6-26.73A18,18,0,0,0,342.44,20.36Zm-18,7.18H312.73V13.18h11.69a7.18,7.18,0,1,1,0,14.36Z"/><path class="cls-1" d="M620,38.39h6.68c3.8,5.15,10.56,15.09,14.38,25.21h11.44c-3.13-10-9-19.9-13.6-26.73a18,18,0,0,0-7.2-34.53H609.11v61.2H620Zm0-25.21h11.7a7.18,7.18,0,1,1,0,14.36H620Z"/><path class="cls-1" d="M707.74,48.83h17.38l4.25,14.77h11.28L723,2.34H709.83L692.2,63.6h11.29Zm8.69-30.2L722,38H710.86Z"/><rect class="cls-2" x="397.43" y="131.85" width="27.88" height="116.62" transform="translate(-0.32 0.68) rotate(-0.1)"/><rect class="cls-2" x="397.53" y="92.01" width="27.88" height="30.98" transform="translate(-0.66 2.55) rotate(-0.36)"/><polygon class="cls-2" points="490.62 131.56 490.55 109.88 476.78 109.93 476.76 92 448.88 92.04 448.9 110.02 435.88 110.07 435.96 131.76 448.93 131.71 449.07 248.49 476.96 248.46 476.81 131.61 490.62 131.56"/><path class="cls-2" d="M533.43,130.62c-27.71,0-50.25,26.45-50.25,59s22.54,59,50.25,59,50.25-26.45,50.25-59S561.14,130.62,533.43,130.62Zm0,90c-12.12,0-22.35-14.22-22.35-31.07s10.23-31.07,22.35-31.07,22.35,14.23,22.35,31.07S545.54,220.65,533.43,220.65Z"/><polygon class="cls-2" points="299.91 131.82 285.97 131.82 285.97 248.49 313.85 248.49 313.85 166.05 332.35 166.05 332.35 131.82 313.85 131.82 299.91 131.82"/><polygon class="cls-2" points="356.98 131.82 343.04 131.82 343.04 248.49 370.92 248.49 370.92 166.05 389.42 166.05 389.42 131.82 370.92 131.82 356.98 131.82"/><path class="cls-2" d="M230.64,130.56c-26.81,0-48.63,26.45-48.63,59s21.82,59,48.63,59c22,0,40.61-17.79,46.6-42.12H248c-3.75,8.49-10.18,14.24-17.32,14.24-9,0-16.94-9.21-19.7-21.58h67.7a72.44,72.44,0,0,0,.64-9.51C279.28,157,257.46,130.56,230.64,130.56Zm-19.3,47.87c3-11.56,10.65-20,19.3-20s16.25,8.43,19.31,20Z"/><path class="cls-2" d="M170.64,111.3,155.75,84.15l-32.62-17.6-2.21,4.09,31.42,17,13,23.71H130.71c-1.82-1.32-4.3-3-6.75-4.52l-2.38,4c2.19,1.32,4.48,2.9,6.21,4.15v32.14h42.86V111.3Z"/><path class="cls-2" d="M166.88,174.83h0v0h0v0H130.17l-.67.64c-2.43,2.31-5,4.6-7.7,6.76a65.78,65.78,0,0,1-39.6,13,41.34,41.34,0,0,1-20.15-4.95,40.82,40.82,0,0,1-11.46-9.39c-.74-.87-1.47-1.79-2.17-2.74a46.69,46.69,0,0,1-3-4.58,52.85,52.85,0,0,1-4.89-11.43h0a48.54,48.54,0,0,1-2.07-13.49,47,47,0,0,1,6.56-23.79l-4-2.36a51.67,51.67,0,0,0-7.2,26.15,53.42,53.42,0,0,0,2.26,14.81h0a58.21,58.21,0,0,0,5.32,12.43,53.75,53.75,0,0,0,3.25,5c.77,1,1.57,2.06,2.39,3a44.89,44.89,0,0,0,35.14,16,70.5,70.5,0,0,0,42.45-14c2.57-2.09,5-4.25,7.37-6.42h31.27C158,190.61,136.89,226.86,88,226.86c-56.83,0-76.25-50.08-76.44-50.59l-.1-.22c-.29-.6-28.83-60.36,34.18-102.48l-2.59-3.86C8.46,92.85.56,121.09,0,140.7c0,1,0,1.87,0,2.79H0v35.36a38.33,38.33,0,0,0,3.42,15.87l.18.4c1.07,2.7,23,56.28,85,56.28,46.36,0,70.24-29.17,80.34-46.55l0,0h.33v-30h-2.32Z"/><path class="cls-1" d="M121.56,72.83l7.3-5.69L118,55.89l-1.46,1.4L50,73.06,45.8,69.81h0l-.21-.17,5-5.24,25.59-6.06-1.07-4.52L50,59.78l-6.42-5L40.7,58.44,46,62.55l-7.3,7.58,7.3,5.7-7.3,7.59L46,89.1l-7.3,7.59,7.3,5.69L38.67,110l7.3,5.69-7.3,7.59,7.3,5.69-7.3,7.59,7.3,5.69-7.3,7.58,7.3,5.69-7.3,7.59,7.3,5.69-4.21,4.38,3.35,3.22,5.52-5.74,66.72-15.81,4.58,4.77-4.86,3.79L48.89,179.54,50,184.06l67.39-16,4.58,4.77-4.86,3.79L60.4,190.09l1.07,4.52,55.87-13.23,4.17,4.33,3.35-3.22-3.3-3.43,7.3-5.69-7.3-7.59,7.3-5.69-7.3-7.59,7.3-5.69-7.3-7.59,7.3-5.69-7.3-7.59,7.3-5.68-7.3-7.59,2.64-2.06h0l4.66-3.63-7.3-7.59,7.3-5.69-7.3-7.59,7.3-5.69ZM50.63,77.68l66.67-15.8,4.63,4.77-4.86,3.79L50,86.34l-4.39-3.42Zm0,13.28,66.72-15.81,4.58,4.78-4.86,3.79L50,99.62,45.59,96.2Zm66.44,59.15L50,166l-4.39-3.41,5-5.24,66.72-15.81,4.58,4.78Zm0-13.28L50,152.73l-4.39-3.42,5-5.24,66.72-15.81,4.58,4.78Zm0-13.28L50,139.45,45.59,136l5-5.24L117.35,115l4.58,4.77Zm0-13.28L50,126.17l-4.39-3.42,5-5.23L107.75,104l9.6-2.27,4.58,4.77Zm0-13.27-10.39,2.46L50,112.89l-4.39-3.42,5-5.23,66.72-15.81,4.58,4.77Z"/><path class="cls-2" d="M169.2,174.85h-2.32v0h0v0h0v0H130.17l-.67.64c-2.43,2.31-5,4.6-7.7,6.76a65.78,65.78,0,0,1-39.6,13,41.34,41.34,0,0,1-20.15-4.95,40.82,40.82,0,0,1-11.46-9.39c-.74-.87-1.47-1.79-2.17-2.74a46.69,46.69,0,0,1-3-4.58,52.85,52.85,0,0,1-4.89-11.43h0c-.2-.69-.37-1.38-.54-2.08h-4.8c.26,1.14.55,2.27.88,3.4h0a58.21,58.21,0,0,0,5.32,12.43,53.75,53.75,0,0,0,3.25,5c.77,1,1.57,2.06,2.39,3a44.89,44.89,0,0,0,35.14,16,70.5,70.5,0,0,0,42.45-14c2.57-2.09,5-4.25,7.37-6.42h31.27C158,190.61,136.89,226.86,88,226.86c-56.83,0-76.25-50.08-76.44-50.59l-.1-.22a74.31,74.31,0,0,1-5-16H0v18.76a38.33,38.33,0,0,0,3.42,15.87l.18.4c1.07,2.7,23,56.28,85,56.28,46.36,0,70.24-29.17,80.34-46.55l0,0h.33Z"/></g></g></svg>