<?xml version="1.0" encoding="utf-8"?>
<!-- Generator: Adobe Illustrator 26.0.0, SVG Export Plug-In . SVG Version: 6.00 Build 0)  -->
<svg version="1.1" xmlns="http://www.w3.org/2000/svg" xmlns:xlink="http://www.w3.org/1999/xlink" x="0px" y="0px"
	 viewBox="0 0 841.9 595.3" style="enable-background:new 0 0 841.9 595.3;" xml:space="preserve">
<style type="text/css">
	.st0{display:none;}
	.st1{display:inline;}
	.st2{fill:none;stroke:#E6007E;stroke-width:4;stroke-miterlimit:10;}
	.st3{display:inline;fill:none;stroke:#E6007E;stroke-width:18;stroke-miterlimit:10;}
	.st4{display:inline;fill:none;stroke:#E6007E;stroke-width:20;stroke-miterlimit:10;}
	.st5{display:inline;fill:none;stroke:#E6007E;stroke-width:21;stroke-miterlimit:10;}
	.st6{display:inline;fill:none;stroke:#E6007E;stroke-width:14;stroke-miterlimit:10;}
	.st7{display:inline;fill:none;stroke:#E6007E;stroke-width:5;stroke-miterlimit:10;}
	.st8{fill:none;stroke:#E71A78;stroke-width:2.75;stroke-miterlimit:10;}
	.st9{fill:#E71A78;}
	.st10{display:inline;fill:none;stroke:#E6007E;stroke-miterlimit:10;}
	.st11{display:inline;fill:#E6007E;}
	.st12{display:inline;fill:none;stroke:#E6007E;stroke-width:3;stroke-miterlimit:10;}
	.st13{fill:none;stroke:#E6007E;stroke-width:3;stroke-miterlimit:10;}
	.st14{fill:#2C398C;}
	.st15{fill:#CC252C;}
	.st16{display:inline;fill:#2C398C;}
</style>
<g id="imagenes" class="st0">
	
		<image style="display:inline;overflow:visible;" width="738" height="244" xlink:href="BB155207.jpg"  transform="matrix(0.75 0 0 0.75 1081.6263 435.668)">
	</image>
	
		<image style="display:inline;overflow:visible;" width="738" height="244" xlink:href="BB155205.jpg"  transform="matrix(0.75 0 0 0.75 1066.0214 187.7851)">
	</image>
	
		<image style="display:inline;overflow:visible;" width="738" height="244" xlink:href="BB15520B.jpg"  transform="matrix(0.75 0 0 0.75 1066.0214 -11.9688)">
	</image>
	
		<image style="display:inline;overflow:visible;" width="738" height="244" xlink:href="BB15520D.jpg"  transform="matrix(0.75 0 0 0.75 1068.4886 667.3634)">
	</image>
</g>
<g id="Capa_1" class="st0">
	<g class="st1">
		<polyline class="st2" points="1167.6,363.2 1150.5,363.2 1144.9,354 		"/>
		<polyline class="st2" points="1167.1,363.2 1184.1,363.2 1189.8,354 		"/>
	</g>
	<line class="st3" x1="1307" y1="357.4" x2="1306.9" y2="282.1"/>
	<line class="st3" x1="1411.9" y1="357.4" x2="1411.8" y2="256.4"/>
	<line class="st3" x1="1378.6" y1="357.4" x2="1378.5" y2="282.1"/>
	<line class="st3" x1="1343.6" y1="357.4" x2="1343.5" y2="282.1"/>
	<line class="st4" x1="1365.1" y1="292" x2="1334.9" y2="292.1"/>
	<line class="st5" x1="1328.1" y1="291.9" x2="1298.2" y2="292"/>
	<line class="st3" x1="1378.7" y1="276.4" x2="1378.6" y2="256.4"/>
	<line class="st6" x1="1429.7" y1="274.9" x2="1394.4" y2="275"/>
	<line class="st7" x1="1512.2" y1="327.1" x2="1512.2" y2="358.2"/>
	<line class="st7" x1="1537.2" y1="327.1" x2="1537.2" y2="358.2"/>
	<line class="st7" x1="1525.8" y1="329.6" x2="1548.3" y2="329.6"/>
	<line class="st7" x1="1509.7" y1="355.8" x2="1527.3" y2="355.8"/>
	<path class="st7" d="M1560.8,355.8h-8.5v-26.2h8.1c6.2,0,11.2,5,11.2,11.2v4.2C1571.6,351,1566.8,355.8,1560.8,355.8z"/>
	<line class="st7" x1="1578.6" y1="346.3" x2="1596.1" y2="346.3"/>
	<line class="st7" x1="1602.6" y1="355.8" x2="1607.6" y2="355.8"/>
	<line class="st7" x1="1585.9" y1="324.4" x2="1600" y2="360.2"/>
	<line class="st7" x1="1588.3" y1="325.8" x2="1575" y2="359.5"/>
</g>
<g id="Capa_4" class="st0">
	<g class="st1">
		<line class="st8" x1="1144.9" y1="245.8" x2="1189.2" y2="235.3"/>
		<line class="st8" x1="1189.2" y1="243.8" x2="1144.9" y2="254.3"/>
		<line class="st8" x1="1161.9" y1="233.2" x2="1144.9" y2="237.2"/>
		<polyline class="st8" points="1144.9,237.2 1140.2,242.1 1144.9,245.8 		"/>
		<line class="st8" x1="1140.2" y1="233.5" x2="1144.9" y2="237.2"/>
		<polyline class="st8" points="1144.9,245.8 1140.2,250.7 1144.9,254.3 		"/>
		<polyline class="st8" points="1144.9,254.3 1140.2,259.2 1144.9,262.9 		"/>
		<polyline class="st8" points="1144.9,262.9 1140.2,267.8 1144.9,271.5 		"/>
		<polyline class="st8" points="1144.9,271.5 1140.2,276.4 1144.9,280.1 		"/>
		<polyline class="st8" points="1144.9,280.1 1140.2,285 1144.9,288.6 		"/>
		<polyline class="st8" points="1144.9,288.6 1140.2,293.5 1144.9,297.2 		"/>
		<polyline class="st8" points="1144.9,297.2 1140.2,302.1 1144.9,305.8 		"/>
		<polyline class="st8" points="1144.9,305.8 1140.2,310.7 1144.9,314.4 		"/>
		<polyline class="st8" points="1144.9,314.4 1140.2,319.2 1144.9,322.9 		"/>
		<polyline class="st8" points="1189.2,235.3 1193.9,240.2 1189.2,243.8 		"/>
		<path class="st8" d="M1189.2,235.3"/>
		<polyline class="st8" points="1189.2,243.8 1193.9,248.7 1189.2,252.4 		"/>
		<polyline class="st8" points="1189.2,252.4 1193.9,257.3 1189.2,261 		"/>
		<polyline class="st8" points="1189.2,261 1193.9,265.9 1189.2,269.6 		"/>
		<polyline class="st8" points="1189.2,269.6 1193.9,274.5 1189.2,278.1 		"/>
		<polyline class="st8" points="1189.2,278.1 1193.9,283 1189.2,286.7 		"/>
		<polyline class="st8" points="1189.2,286.7 1193.9,291.6 1189.2,295.3 		"/>
		<polyline class="st8" points="1189.2,295.3 1193.9,300.2 1189.2,303.8 		"/>
		<polyline class="st8" points="1189.2,303.8 1193.9,308.7 1189.2,312.4 		"/>
		<polyline class="st8" points="1189.2,312.4 1193.9,317.3 1189.2,321 		"/>
		<line class="st8" x1="1189.2" y1="252.4" x2="1144.9" y2="262.9"/>
		<line class="st8" x1="1189.2" y1="261" x2="1144.9" y2="271.5"/>
		<line class="st8" x1="1189.2" y1="269.6" x2="1144.9" y2="280.1"/>
		<line class="st8" x1="1189.2" y1="278.1" x2="1144.9" y2="288.6"/>
		<line class="st8" x1="1189.2" y1="286.7" x2="1144.9" y2="297.2"/>
		<line class="st8" x1="1189.2" y1="295.3" x2="1144.9" y2="305.8"/>
		<line class="st8" x1="1189.2" y1="303.8" x2="1144.9" y2="314.4"/>
		<line class="st8" x1="1189.2" y1="312.4" x2="1144.9" y2="322.9"/>
		<polygon class="st8" points="1129.1,233.2 1129.1,207.4 1138.1,198.5 1199.1,198.5 1208.1,207.4 1208.1,233.2 		"/>
		<polyline class="st8" points="1221.7,270.3 1212.3,253.2 1191.6,242 		"/>
		<path class="st8" d="M1220.7,311.3c0,0-12.7,33.6-50.9,33.6s-50.8-33.6-50.8-33.6s-19.7-39.8,22.6-68.1"/>
		<path class="st8" d="M1114.5,282.6v29.8c0,3.3,0.7,6.6,2.1,9.6c0.1,0.2,0.1,0.3,0.1,0.3s13.2,35.4,53.5,35.4
			c40.3,0,53.6-35.4,53.6-35.4"/>
		<path class="st8" d="M1146.1,233.2v-24.5c0,0,8.4-10.2,22.6-10.2"/>
		<path class="st8" d="M1190,233.2v-24.5c0,0-8.4-10.2-22.6-10.2"/>
		<path class="st8" d="M1146.1,208.7c0,0-3.8-4.6-10.5-7.6"/>
		<path class="st8" d="M1190.2,208.7c0,0,3.8-4.6,10.5-7.6"/>
		<g>
			<polygon class="st9" points="1232.3,205.5 1241.4,205.5 1241.4,238 1248.4,238 1248.4,205.5 1257.6,205.5 1257.6,198.5 
				1232.3,198.5 			"/>
			<polygon class="st9" points="1364.5,222.4 1352.7,198.5 1350.4,198.5 1350.4,198.5 1345.2,198.5 1345.2,238 1352.2,238 
				1352.2,214 1364.5,238 1364.5,238 1366.8,238 1371.5,238 1371.5,198.5 1364.5,198.5 			"/>
			<rect x="1383.8" y="198.5" class="st9" width="7" height="39.5"/>
			<rect x="1543.7" y="198.4" class="st9" width="7" height="39.6"/>
			<polygon class="st9" points="1409.8,198.5 1402.8,198.5 1402.8,238 1425.7,238 1425.7,231 1409.8,231 			"/>
			<polygon class="st9" points="1443.2,198.5 1436.2,198.5 1436.2,238 1459,238 1459,231 1443.2,231 			"/>
			<polygon class="st9" points="1470.8,198.9 1470.8,227.6 1470.8,238 1493.7,238 1493.7,231 1477.8,231 1477.8,227.6 1477.8,220.7 
				1493.7,220.7 1493.7,213.7 1477.8,213.7 1477.8,205.5 1493.7,205.5 1493.7,198.5 1470.8,198.5 			"/>
			<path class="st9" d="M1280.9,197.3c-8.9,0-15.8,9.1-15.8,20.8s7,20.8,15.8,20.8s15.8-9.1,15.8-20.8S1289.8,197.3,1280.9,197.3z
				 M1280.9,231.9c-4.8,0-8.8-6.3-8.8-13.8s4-13.8,8.8-13.8s8.8,6.3,8.8,13.8S1285.7,231.9,1280.9,231.9z"/>
			<path class="st9" d="M1334.1,210.1c0-6.4-5.2-11.6-11.6-11.6h-14.5v0.4v22.8V238h7v-16.2h4.3c2.5,3.3,6.8,9.7,9.3,16.3h7.4
				c-2-6.5-5.8-12.8-8.8-17.3C1331.2,219,1334.1,214.9,1334.1,210.1z M1314.9,205.5h7.5c2.6,0,4.6,2.1,4.6,4.6s-2.1,4.6-4.6,4.6
				h-7.5V205.5z"/>
			<path class="st9" d="M1532.4,210.1c0-6.4-5.2-11.6-11.6-11.6h-14.5v0.4v22.8V238h7v-16.2h4.3c2.5,3.3,6.8,9.7,9.3,16.3h7.4
				c-2-6.5-5.8-12.8-8.8-17.3C1529.5,219,1532.4,214.9,1532.4,210.1z M1513.2,205.5h7.5c2.6,0,4.6,2.1,4.6,4.6s-2.1,4.6-4.6,4.6
				h-7.5V205.5z"/>
			<path class="st9" d="M1583.8,238h7.3l-11.4-39.5h-8.5l-11.4,39.5h7.3l2.7-9.5h11.2L1583.8,238z M1579.1,221.5h-7.2l3.6-12.5
				L1579.1,221.5z"/>
		</g>
	</g>
	<ellipse class="st3" cx="1457.4" cy="317.3" rx="23.4" ry="29"/>
	<ellipse class="st3" cx="1262.3" cy="319.7" rx="23.4" ry="29"/>
	<polyline class="st10" points="1197.3,90 1197.3,90.1 1221.8,90.1 1221.8,70.7 1197.3,70.7 1197.3,70.9 	"/>
	<polyline class="st10" points="1197.3,90 1197.3,71.3 1197.3,70.9 	"/>
	<path class="st10" d="M1197.3,112.7c0,0-11.1,12.4-30.7,12.4c-16,0-25.1-11.4-28.3-22.4"/>
	<path class="st10" d="M1197.3,70.9c0,0-11.4-9.8-27.7-9.8c-18.1,0-32.7,15-32.7,32.4c0,2.8,0.5,6,1.4,9.1"/>
	<path class="st10" d="M1197.3,90c0,0-7.4-9.8-28.6-9.8c-15.9,0-26.8,9.6-30.5,22.4"/>
	<g class="st1">
		<polyline class="st2" points="1183.2,611.1 1166.2,611.1 1159,599.4 		"/>
		<polyline class="st2" points="1182.7,611.1 1199.7,611.1 1205.4,601.9 		"/>
	</g>
	
		<rect x="1418.4" y="504.3" transform="matrix(1 -1.237623e-03 1.237623e-03 1 -0.6855 1.7671)" class="st11" width="18" height="101"/>
	
		<rect x="1385.2" y="530" transform="matrix(1 -1.660352e-03 1.660352e-03 1 -0.9405 2.3156)" class="st11" width="18" height="75.3"/>
	
		<rect x="1385.2" y="504.3" transform="matrix(1 -6.201053e-03 6.201053e-03 1 -3.1622 8.6556)" class="st11" width="18" height="20"/>
	
		<rect x="1410" y="515.9" transform="matrix(1 -3.487702e-03 3.487702e-03 1 -1.8149 4.9824)" class="st11" width="35.3" height="14"/>
	<rect x="1525.3" y="575" class="st11" width="5" height="31"/>
	<rect x="1550.3" y="575" class="st11" width="5" height="31"/>
	<rect x="1541.4" y="575" class="st11" width="22.5" height="5"/>
	<rect x="1525.3" y="601.2" class="st11" width="17.5" height="5"/>
	<path class="st11" d="M1576.4,606.2h-11V575h10.6c7.5,0,13.7,6.1,13.7,13.7v4.2C1589.7,600.2,1583.8,606.2,1576.4,606.2z
		 M1570.4,601.2h6c4.6,0,8.3-3.7,8.3-8.3v-4.2c0-4.8-3.9-8.7-8.7-8.7h-5.6V601.2z"/>
	<rect x="1594.2" y="591.7" class="st11" width="17.5" height="5"/>
	<rect x="1618.2" y="601.2" class="st11" width="5" height="5"/>
	<path class="st11" d="M1473,605.3c-17.9,0-32.4-17.1-32.4-38.1c0-21,14.6-38.1,32.4-38.1c17.9,0,32.4,17.1,32.4,38.1
		C1505.4,588.2,1490.8,605.3,1473,605.3z M1473,547.2c-7.8,0-14.4,9.2-14.4,20.1c0,10.9,6.6,20.1,14.4,20.1s14.4-9.2,14.4-20.1
		C1487.4,556.4,1480.8,547.2,1473,547.2z"/>
	<line class="st12" x1="1204.8" y1="483.2" x2="1160.5" y2="493.7"/>
	<line class="st12" x1="1204.8" y1="491.7" x2="1160.5" y2="502.2"/>
	<line class="st12" x1="1177.5" y1="481.1" x2="1160.5" y2="485.1"/>
	<line class="st12" x1="1157.2" y1="491.1" x2="1160.5" y2="493.7"/>
	<polyline class="st12" points="1157.2,491.1 1155.8,490 1160.5,485.1 	"/>
	<line class="st12" x1="1155.8" y1="481.4" x2="1160.5" y2="485.1"/>
	<polyline class="st12" points="1160.5,493.7 1155.8,498.6 1160.5,502.2 	"/>
	<polyline class="st12" points="1160.5,502.2 1155.8,507.1 1160.5,510.8 	"/>
	<line class="st12" x1="1160.4" y1="519.3" x2="1160.5" y2="519.4"/>
	<polyline class="st12" points="1160.5,510.8 1155.8,515.7 1160.4,519.3 	"/>
	<polyline class="st12" points="1158.9,521 1155.8,524.3 1156.4,524.7 	"/>
	<line class="st12" x1="1160.5" y1="527.9" x2="1156.4" y2="524.7"/>
	<line class="st12" x1="1158.9" y1="521" x2="1160.5" y2="519.4"/>
	<polyline class="st12" points="1160.5,536.5 1155.8,532.8 1160.5,527.9 	"/>
	<polyline class="st12" points="1160.5,536.5 1155.8,541.4 1160.5,545.1 	"/>
	<polyline class="st12" points="1160.5,545.1 1155.8,550 1160.5,553.7 	"/>
	<path class="st12" d="M1158.7,560.8"/>
	<path class="st12" d="M1156.6,557.7"/>
	<line class="st12" x1="1156.6" y1="557.7" x2="1160.5" y2="553.7"/>
	<line class="st12" x1="1158.7" y1="560.8" x2="1160.5" y2="562.2"/>
	<line class="st12" x1="1160.1" y1="562.6" x2="1160.5" y2="562.2"/>
	<path class="st12" d="M1160.5,570.8"/>
	<path class="st12" d="M1160.1,562.6"/>
	<polyline class="st12" points="1204.8,500.3 1209.6,496.6 1204.8,491.7 	"/>
	<polyline class="st12" points="1204.8,491.7 1209.6,488.1 1203.7,482 	"/>
	<polyline class="st12" points="1204.8,508.9 1209.6,505.2 1204.8,500.3 	"/>
	<polyline class="st12" points="1207.9,515.1 1209.6,513.8 1204.8,508.9 	"/>
	<line class="st12" x1="1207.9" y1="515.1" x2="1204.8" y2="517.4"/>
	<polyline class="st12" points="1204.8,526 1209.6,522.3 1204.8,517.4 	"/>
	<polyline class="st12" points="1204.8,534.6 1209.6,530.9 1204.8,526 	"/>
	<polyline class="st12" points="1204.8,534.6 1209.6,539.5 1204.8,543.2 	"/>
	<polyline class="st12" points="1204.8,551.7 1209.6,548.1 1204.8,543.2 	"/>
	<polyline class="st12" points="1204.8,560.3 1209.6,556.6 1204.8,551.7 	"/>
	<line class="st12" x1="1208.1" y1="563.7" x2="1204.8" y2="560.3"/>
	<path class="st12" d="M1204.8,568.9"/>
	<line class="st12" x1="1204.8" y1="500.3" x2="1160.5" y2="510.8"/>
	<line class="st12" x1="1204.8" y1="508.9" x2="1197.8" y2="510.5"/>
	<line class="st12" x1="1197.8" y1="510.5" x2="1160.5" y2="519.4"/>
	<line class="st12" x1="1204.8" y1="517.4" x2="1160.5" y2="527.9"/>
	<line class="st12" x1="1160.5" y1="536.5" x2="1204.8" y2="526"/>
	<line class="st12" x1="1204.8" y1="534.6" x2="1160.5" y2="545.1"/>
	<line class="st12" x1="1204.8" y1="543.2" x2="1160.5" y2="553.7"/>
	<line class="st12" x1="1204.8" y1="551.7" x2="1160.5" y2="562.2"/>
	<line class="st12" x1="1204.8" y1="560.3" x2="1167.9" y2="569"/>
	<path class="st12" d="M1167.9,569"/>
	<path class="st12" d="M1160.5,570.8"/>
	<line class="st12" x1="1177.5" y1="481.1" x2="1161.7" y2="481.1"/>
	<line class="st12" x1="1205.6" y1="481.1" x2="1177.5" y2="481.1"/>
	<polyline class="st12" points="1151.1,448.9 1153.7,446.4 1183,446.4 	"/>
	<line class="st12" x1="1184.2" y1="446.4" x2="1183" y2="446.4"/>
	<polyline class="st12" points="1205.6,481.1 1223.7,481.1 1223.7,455.3 1214.7,446.4 1184.2,446.4 	"/>
	<polyline class="st12" points="1151.1,448.9 1144.8,455.3 1144.8,481.1 1161.7,481.1 	"/>
	<polyline class="st12" points="1207.2,489.9 1227.9,501 1237.3,518.2 	"/>
	<line class="st12" x1="1207.2" y1="489.9" x2="1207.2" y2="489.9"/>
	<line class="st12" x1="1157.2" y1="491.1" x2="1157.2" y2="491.1"/>
	<path class="st12" d="M1161.7,456.5c0,0,8.1-9.9,22-10.2"/>
	<path class="st12" d="M1184.2,446.4c-0.2,0-0.4,0-0.6,0"/>
	<line class="st12" x1="1161.7" y1="456.5" x2="1161.7" y2="481.1"/>
	<path class="st12" d="M1183.6,446.4c-0.2,0-0.4,0-0.6,0"/>
	<path class="st12" d="M1205.6,481.1v-24.5c0,0-8.1-9.9-22-10.2"/>
	<path class="st12" d="M1161.7,456.5c0,0-3.8-4.6-10.5-7.6"/>
	<line class="st12" x1="1151.1" y1="448.9" x2="1151.1" y2="448.9"/>
	<path class="st12" d="M1216.4,448.9c-6.8,3-10.5,7.6-10.5,7.6"/>
	<polygon class="st11" points="1247.9,446.4 1247.9,453.4 1257,453.4 1257,485.9 1264,485.9 1264,453.4 1273.2,453.4 1273.2,446.4 	
		"/>
	<polygon class="st11" points="1360.8,446.3 1360.8,485.9 1367.8,485.9 1367.8,461.9 1380.1,485.9 1380.1,485.9 1382.4,485.9 
		1387.1,485.9 1387.1,446.3 1380.1,446.3 1380.1,470.2 1368.3,446.3 1366,446.3 1366,446.3 	"/>
	<rect x="1399.4" y="446.4" class="st11" width="7" height="39.5"/>
	<rect x="1559.4" y="446.3" class="st11" width="7" height="39.6"/>
	<polygon class="st11" points="1418.4,446.4 1418.4,485.9 1441.3,485.9 1441.3,478.9 1425.4,478.9 1425.4,446.4 	"/>
	<polygon class="st11" points="1451.8,446.4 1451.8,485.9 1474.7,485.9 1474.7,478.9 1458.8,478.9 1458.8,446.4 	"/>
	<polygon class="st11" points="1486.4,446.4 1486.4,446.8 1486.4,475.5 1486.4,485.9 1509.3,485.9 1509.3,478.9 1493.4,478.9 
		1493.4,475.5 1493.4,468.6 1509.3,468.6 1509.3,461.6 1493.4,461.6 1493.4,453.4 1509.3,453.4 1509.3,446.4 	"/>
	<path class="st11" d="M1296.5,445.2c-8.9,0-15.8,9.1-15.8,20.8s7,20.8,15.8,20.8s15.8-9.1,15.8-20.8S1305.4,445.2,1296.5,445.2z
		 M1296.5,479.8c-4.8,0-8.8-6.3-8.8-13.8s4-13.8,8.8-13.8s8.8,6.3,8.8,13.8S1301.3,479.8,1296.5,479.8z"/>
	<path class="st11" d="M1342.7,468.7c4.1-1.8,7-5.9,7-10.7c0-6.4-5.2-11.6-11.6-11.6h-14.5v0.4v22.8v16.2h7v-16.2h4.3
		c2.5,3.3,6.8,9.7,9.3,16.3h7.4C1349.4,479.5,1345.7,473.1,1342.7,468.7z M1338,462.7h-7.5v-9.3h7.5c2.6,0,4.6,2.1,4.6,4.6
		S1340.6,462.7,1338,462.7z"/>
	<path class="st11" d="M1541,468.7c4.1-1.8,7-5.9,7-10.7c0-6.4-5.2-11.6-11.6-11.6h-14.5v0.4v22.8v16.2h7v-16.2h4.3
		c2.5,3.3,6.8,9.7,9.3,16.3h7.4C1547.8,479.5,1544,473.1,1541,468.7z M1536.4,462.7h-7.5v-9.3h7.5c2.6,0,4.6,2.1,4.6,4.6
		S1538.9,462.7,1536.4,462.7z"/>
	<path class="st11" d="M1595.3,446.4h-8.5l-11.4,39.5h7.3l2.7-9.5h11.2l2.7,9.5h7.3L1595.3,446.4z M1587.5,469.4l3.6-12.5l3.6,12.5
		H1587.5z"/>
	<path class="st12" d="M1158.7,560.8c-0.7-1-1.4-2-2-3.1"/>
	<path class="st12" d="M1160.1,562.6c-0.5-0.6-1-1.2-1.5-1.9"/>
	<path class="st12" d="M1160.1,562.6c2.2,2.5,4.8,4.7,7.8,6.4"/>
	<path class="st12" d="M1153.3,550c0.8,2.6,1.9,5.2,3.3,7.7"/>
	<path class="st12" d="M1213.8,519.2c0,0-3.1-2.4-6-4.1"/>
	<path class="st12" d="M1156.4,524.7c0.8-1.3,1.6-2.5,2.5-3.7"/>
	<path class="st12" d="M1207.9,515.1"/>
	<path class="st12" d="M1197.8,510.5"/>
	<path class="st12" d="M1153.3,550c-0.9-3.2-1.4-6.3-1.4-9.1c0-5.8,1.6-11.3,4.4-16.1"/>
	<path class="st12" d="M1160.4,519.3c-0.5,0.6-1,1.2-1.5,1.8"/>
	<path class="st12" d="M1212.6,518.2"/>
	<path class="st12" d="M1237.2,518.2"/>
	<path class="st12" d="M1236.3,542"/>
	<path class="st12" d="M1236.3,517.4"/>
	<path class="st12" d="M1213.8,542"/>
	<path class="st12" d="M1213.8,517.4"/>
	<rect x="1213.8" y="518.2" class="st12" width="23.4" height="19.1"/>
	<g class="st1">
		<line class="st13" x1="1236.3" y1="559.2" x2="1236.3" y2="559.2"/>
		<path class="st13" d="M1157.2,491.1c-42.2,28.2-22.6,68.1-22.6,68.1s12.5,33.6,50.8,33.6c37.6,0,50.5-32.6,50.9-33.6"/>
		<path class="st13" d="M1236.3,559.2C1236.3,559.2,1236.3,559.2,1236.3,559.2"/>
		<path class="st13" d="M1236.3,576.4c-5.9,10.1-20.9,29.3-50.6,29.3c-40.3,0-53.5-35.4-53.5-35.4s0-0.1-0.1-0.3
			c-1.4-3-2.1-6.3-2.1-9.6v-22.8"/>
		<line class="st13" x1="1236.3" y1="559.2" x2="1236.3" y2="559.2"/>
		<path class="st13" d="M1236.3,559.2h-23.1c-1.4,1.3-3.1,2.8-5.1,4.5c-4.9,3.7-14,8.7-26.5,8.7c-5.3,0-9.9-1.3-13.7-3.4"/>
		<line class="st13" x1="1236.3" y1="559.2" x2="1236.3" y2="559.2"/>
		<line class="st13" x1="1236.3" y1="557.7" x2="1236.3" y2="577.1"/>
	</g>
	<polygon class="st11" points="1594.4,606.2 1602.9,582 1611.4,606.2 1616.7,606.2 1605.7,575 1600,575 1589.1,606.2 	"/>
	<path class="st11" d="M1295,573.4h13.5c0.3-2,0.4-4,0.4-6.1c0-21-14.1-38.1-31.4-38.1c-17.3,0-31.4,17.1-31.4,38.1
		s14.1,38.1,31.4,38.1c14.2,0,26.2-11.5,30.1-27.2h-18.9c-2.4,5.5-6.6,9.2-11.2,9.2c-5.8,0-10.9-5.9-12.7-13.9h25.4H1295z
		 M1277.5,547.2c5.6,0,10.5,5.4,12.5,12.9H1265C1267,552.6,1271.9,547.2,1277.5,547.2z"/>
	<polygon class="st11" points="1343.2,530 1331.2,530 1322.2,530 1313.2,530 1313.2,605.3 1331.2,605.3 1331.2,552.1 1343.2,552.1 	
		"/>
	<polygon class="st11" points="1380,530 1368,530 1359,530 1350,530 1350,605.3 1368,605.3 1368,552.1 1380,552.1 	"/>
</g>
<g id="definitivo">
	<g>
		<path class="st14" d="M171.6,167.7h-45.5h-2.8h0h-3.6h0H117H71.5l-15.2,15.2v43.2H117h9.2h60.7v-43.2L171.6,167.7z M84.3,221.5H61
			v-36.6l8.5-8.5c8.6,3.9,13.8,9.5,14.9,10.7V221.5z M73,172.9l0.5-0.5H101c-7.2,3.4-12.1,7.8-14.5,10.2
			C84.2,180.3,79.6,176.2,73,172.9z M154.2,221.5h-28H117H89v-34.8c2.4-2.5,12.4-12.4,28-14l0,0c0.4,0,0.8-0.1,1.1-0.1
			c0.9-0.1,1.7-0.1,2.6-0.2l0,0h1.7l0,0c0.9,0,1.7,0.1,2.6,0.2c0.4,0,0.8,0.1,1.1,0.1l0,0c15.6,1.7,25.7,11.5,28,14V221.5z
			 M142.2,172.4h27.5l0.5,0.5c-6.7,3.3-11.2,7.4-13.5,9.7C154.3,180.1,149.4,175.8,142.2,172.4z M182.2,221.5h-23.4v-34.4
			c1-1.2,6.3-6.8,14.9-10.7l8.5,8.5V221.5z"/>
		<g>
			<polygon class="st14" points="148.1,427.6 95.1,427.6 81.8,406 85.8,403.5 97.7,422.9 145.5,422.9 157.4,403.5 161.3,406 			"/>
		</g>
	</g>
	<path class="st13" d="M204.7,318.2"/>
	<polygon class="st14" points="660.1,369.2 652.4,369.2 652.4,417.3 652.4,417.3 652.4,417.6 679.6,417.6 679.6,409.9 660.1,409.9 	
		"/>
	<polygon class="st14" points="691,369.2 677.3,369.2 677.3,377 691,377 691,417.3 698.8,417.3 698.8,377 712.2,377 712.2,369.2 
		698.8,369.2 	"/>
	<path class="st14" d="M752.2,390.4c0-11.7-9.5-21.2-21.2-21.2h-16.5v48.4h17c11.4,0,20.7-9.3,20.7-20.7V390.4z M744.4,397
		c0,7.1-5.8,12.9-12.9,12.9h-9.3V377h8.7c7.4,0,13.5,6,13.5,13.5V397z"/>
	<path class="st14" d="M786.2,395.2H786l-9.1-26h-8.8l-17,48.4h8.2l5.2-14.7h16.1l5.2,14.7h8.2l-7.7-22V395.2z M767.2,395.2
		l5.3-15.1l5.3,15.1H767.2z"/>
	<rect x="796.2" y="409.9" class="st14" width="7.8" height="7.7"/>
	<polygon class="st14" points="222.6,180.9 236.8,180.9 236.8,231.3 247.6,231.3 247.6,180.9 261.8,180.9 261.8,170.1 222.6,170.1 	
		"/>
	<polygon class="st14" points="427.4,207 409.1,170 405.6,170 405.6,170 397.6,170 397.6,231.3 408.4,231.3 408.4,194 427.4,231.3 
		427.4,231.3 431,231.3 438.3,231.3 438.3,170 427.4,170 	"/>
	<rect x="457.3" y="170.1" class="st14" width="10.8" height="61.3"/>
	<rect x="705.1" y="169.9" class="st14" width="10.8" height="61.4"/>
	<polygon class="st14" points="497.6,170.1 486.8,170.1 486.8,231.3 522.1,231.3 522.1,220.5 497.6,220.5 	"/>
	<polygon class="st14" points="549.3,170.1 538.5,170.1 538.5,231.3 573.9,231.3 573.9,220.5 549.3,220.5 	"/>
	<polygon class="st14" points="592.1,170.7 592.1,215.2 592.1,231.3 627.5,231.3 627.5,220.5 603,220.5 603,215.2 603,204.5 
		627.5,204.5 627.5,193.6 603,193.6 603,180.9 627.5,180.9 627.5,170.1 592.1,170.1 	"/>
	<path class="st14" d="M297.9,168.2c-13.8,0-24.5,14.2-24.5,32.2s10.8,32.2,24.5,32.2c13.8,0,24.5-14.2,24.5-32.2
		S311.7,168.2,297.9,168.2z M297.9,221.8c-7.4,0-13.7-9.8-13.7-21.4s6.3-21.4,13.7-21.4s13.7,9.8,13.7,21.4S305.4,221.8,297.9,221.8
		z"/>
	<path class="st14" d="M380.3,188.1c0-9.9-8.1-18-18-18h-22.5v0.7v35.4v25.2h10.8v-25.2h6.7c3.8,5.2,10.6,15.1,14.4,25.2H383
		c-3.1-10-9-19.9-13.6-26.7C375.8,201.8,380.3,195.5,380.3,188.1z M362.2,195.3h-11.7v-14.4h11.7c4,0,7.2,3.2,7.2,7.2
		C369.4,192,366.2,195.3,362.2,195.3z"/>
	<path class="st14" d="M657.8,206.1h6.7c3.8,5.2,10.6,15.1,14.4,25.2h11.4c-3.1-10-9-19.9-13.6-26.7c6.4-2.8,10.8-9.1,10.8-16.5
		c0-9.9-8.1-18-18-18h-22.5v0.7v35.4v25.2h10.8V206.1z M657.8,180.9h11.7c4,0,7.2,3.2,7.2,7.2c0,4-3.2,7.2-7.2,7.2h-11.7V180.9z"/>
	<path class="st14" d="M745.6,216.5h17.4l4.2,14.8h11.3l-17.6-61.3h-13.2L730,231.3h11.3L745.6,216.5z M754.3,186.4l5.6,19.4h-11.1
		L754.3,186.4z"/>
	<g>
		
			<rect x="435.3" y="299.6" transform="matrix(1 -1.660094e-03 1.660094e-03 1 -0.5935 0.7462)" class="st15" width="27.9" height="116.6"/>
		
			<rect x="435.4" y="259.7" transform="matrix(1 -6.201627e-03 6.201627e-03 1 -1.6982 2.7916)" class="st15" width="27.9" height="31"/>
		<polygon class="st15" points="528.4,299.3 528.4,277.6 514.6,277.6 514.6,259.7 486.7,259.8 486.7,277.7 473.7,277.8 473.8,299.5 
			486.8,299.4 486.9,416.2 514.8,416.2 514.6,299.3 		"/>
		<path class="st15" d="M571.3,298.3c-27.7,0-50.2,26.5-50.2,59c0,32.5,22.5,59,50.2,59c27.7,0,50.2-26.5,50.2-59
			C621.5,324.8,599,298.3,571.3,298.3z M571.3,388.4c-12.1,0-22.4-14.2-22.4-31.1c0-16.8,10.2-31.1,22.4-31.1s22.4,14.2,22.4,31.1
			C593.6,374.1,583.4,388.4,571.3,388.4z"/>
		<polygon class="st15" points="337.7,299.5 323.8,299.5 323.8,416.2 351.7,416.2 351.7,333.8 370.2,333.8 370.2,299.5 351.7,299.5 
					"/>
		<polygon class="st15" points="394.8,299.5 380.9,299.5 380.9,416.2 408.7,416.2 408.7,333.8 427.2,333.8 427.2,299.5 408.7,299.5 
					"/>
		<path class="st15" d="M268.5,298.3c-26.8,0-48.6,26.5-48.6,59c0,32.5,21.8,59,48.6,59c22,0,40.6-17.8,46.6-42.1h-29.3
			c-3.7,8.5-10.2,14.2-17.3,14.2c-9,0-16.9-9.2-19.7-21.6h39.4h7.4h20.9c0.4-3.1,0.6-6.3,0.6-9.5
			C317.1,324.7,295.3,298.3,268.5,298.3z M249.2,346.1c3.1-11.6,10.7-20,19.3-20c8.7,0,16.2,8.4,19.3,20H249.2z"/>
	</g>
	<g>
		<path class="st15" d="M208.5,279l-14.9-27.1l-32.6-17.6l-2.2,4.1l31.4,16.9l13,23.7h-34.6c-1.8-1.3-4.3-3.1-6.8-4.5l-2.4,4
			c2.2,1.3,4.5,2.9,6.2,4.1v32.1h42.9L208.5,279L208.5,279z"/>
		<path class="st15" d="M204.7,342.6L204.7,342.6L204.7,342.6L204.7,342.6L204.7,342.6H168l-0.7,0.6c-2.4,2.3-5,4.6-7.7,6.8
			c-8,5.9-21.3,13-39.6,13c-7.4,0-14.2-1.7-20.1-4.9c-4.3-2.3-8.1-5.5-11.5-9.4c-0.7-0.9-1.5-1.8-2.2-2.7c-1.1-1.4-2.1-3-3-4.6
			c-2.1-3.6-3.7-7.4-4.9-11.4l0,0c-1.4-4.6-2.1-9.2-2.1-13.5c0-8.3,2.3-16.5,6.6-23.8l-4-2.4c-4.7,8-7.2,17.1-7.2,26.1
			c0,4.7,0.8,9.8,2.3,14.8v0c1.3,4.3,3.1,8.5,5.3,12.4c1,1.7,2.1,3.4,3.3,5c0.8,1,1.6,2.1,2.4,3c3.7,4.3,8,7.8,12.8,10.4
			c6.7,3.7,14.2,5.5,22.4,5.5c19.5,0,33.8-7.6,42.5-14c2.6-2.1,5-4.2,7.4-6.4h31.3c-5.3,11.1-26.4,47.4-75.3,47.4
			c-56.8,0-76.3-50.1-76.4-50.6l-0.1-0.2c-0.3-0.6-28.8-60.4,34.2-102.5l-2.6-3.9c-34.6,23.1-42.5,51.4-43.1,71c0,0.9,0,1.9,0,2.8h0
			v35.4c0,5.5,1.2,11,3.4,15.9l0.2,0.4c1.1,2.7,23,56.3,85,56.3c46.4,0,70.2-29.2,80.3-46.6l0,0h0.3v-30L204.7,342.6L204.7,342.6z"
			/>
	</g>
	<path class="st14" d="M159.4,240.6l7.3-5.7l-10.9-11.3l-1.5,1.4l-66.5,15.8l-4.2-3.3l0,0l-0.2-0.2l5-5.2l25.6-6.1l-1.1-4.5l-25.2,6
		l-6.4-5l-2.9,3.7l5.3,4.1l-7.3,7.6l7.3,5.7l-7.3,7.6l7.3,5.7l-7.3,7.6l7.3,5.7l-7.3,7.6l7.3,5.7l-7.3,7.6l7.3,5.7l-7.3,7.6l7.3,5.7
		l-7.3,7.6l7.3,5.7l-7.3,7.6l7.3,5.7l-4.2,4.4l3.4,3.2l5.5-5.7l66.7-15.8l4.6,4.8l-4.9,3.8l-68.2,16.2l1.1,4.5l67.4-16l4.6,4.8
		l-4.9,3.8l-56.7,13.4l1.1,4.5l55.9-13.2l4.2,4.3l3.3-3.2l-3.3-3.4l7.3-5.7l-7.3-7.6l7.3-5.7l-7.3-7.6l7.3-5.7l-7.3-7.6l7.3-5.7
		l-7.3-7.6l7.3-5.7l-7.3-7.6l2.6-2.1h0l4.7-3.6l-7.3-7.6l7.3-5.7l-7.3-7.6l7.3-5.7L159.4,240.6z M88.5,245.4l66.7-15.8l4.6,4.8
		l-4.9,3.8l-67.1,15.9l-4.4-3.4L88.5,245.4z M88.5,258.7l66.7-15.8l4.6,4.8l-4.9,3.8l-67.1,15.9l-4.4-3.4L88.5,258.7z M154.9,317.8
		l-67.1,15.9l-4.4-3.4l5-5.2l66.7-15.8l4.6,4.8L154.9,317.8z M154.9,304.5l-67.1,15.9l-4.4-3.4l5-5.2l66.7-15.8l4.6,4.8L154.9,304.5
		z M154.9,291.3l-67.1,15.9l-4.4-3.4l5-5.2l66.7-15.8l4.6,4.8L154.9,291.3z M154.9,278l-67.1,15.9l-4.4-3.4l5-5.2l57.1-13.5l9.6-2.3
		l4.6,4.8L154.9,278z M154.9,264.7l-10.4,2.5l-56.7,13.4l-4.4-3.4l5-5.2l66.7-15.8l4.6,4.8L154.9,264.7z"/>
	<g>
		<path class="st15" d="M207,342.6h-2.3v0h0l0,0h0v0H168l-0.7,0.6c-2.4,2.3-5,4.6-7.7,6.8c-8,5.9-21.3,13-39.6,13
			c-7.4,0-14.2-1.7-20.1-4.9c-4.3-2.3-8.1-5.5-11.5-9.4c-0.7-0.9-1.5-1.8-2.2-2.7c-1.1-1.4-2.1-3-3-4.6c-2.1-3.6-3.7-7.4-4.9-11.4
			l0,0c-0.2-0.7-0.4-1.4-0.5-2.1H73c0.3,1.1,0.5,2.3,0.9,3.4v0c1.3,4.3,3.1,8.5,5.3,12.4c1,1.7,2.1,3.4,3.3,5c0.8,1,1.6,2.1,2.4,3
			c3.7,4.3,8,7.8,12.8,10.4c6.7,3.7,14.2,5.5,22.4,5.5c19.5,0,33.8-7.6,42.5-14c2.6-2.1,5-4.2,7.4-6.4h31.3
			c-5.3,11.1-26.4,47.4-75.3,47.4c-56.8,0-76.3-50.1-76.4-50.6l-0.1-0.2c-0.1-0.2-3-6.3-5-16h-6.5v18.8c0,5.5,1.2,11,3.4,15.9
			l0.2,0.4c1.1,2.7,23,56.3,85,56.3c46.4,0,70.2-29.2,80.3-46.6l0,0h0.3V342.6z"/>
	</g>
</g>
<g id="Capa_6" class="st0">
</g>
<g id="Capa_7" class="st0">
</g>
<g id="Capa_8" class="st0">
</g>
<g id="Capa_2" class="st0">
</g>
<g id="Capa_3" class="st0">
	<g class="st1">
		<path class="st14" d="M499.8,134.3h-45.5h-2.8h0H448h0h-2.8h-45.5l-15.2,15.2v43.2h60.7h9.2H515v-43.2L499.8,134.3z M412.5,188.1
			h-23.4v-36.6l8.5-8.5c8.6,3.9,13.8,9.5,14.9,10.7V188.1z M401.1,139.5l0.5-0.5h27.5c-7.2,3.4-12.1,7.8-14.5,10.2
			C412.4,146.9,407.8,142.8,401.1,139.5z M482.4,188.1h-28h-9.2h-28v-34.8c2.4-2.5,12.4-12.4,28-14l0,0c0.4,0,0.8-0.1,1.1-0.1
			c0.9-0.1,1.7-0.1,2.6-0.2l0,0h1.7l0,0c0.9,0,1.7,0.1,2.6,0.2c0.4,0,0.8,0.1,1.1,0.1l0,0c15.6,1.7,25.7,11.5,28,14V188.1z
			 M470.4,139h27.5l0.5,0.5c-6.7,3.3-11.2,7.4-13.5,9.7C482.5,146.8,477.6,142.4,470.4,139z M510.4,188.1H487v-34.4
			c1-1.2,6.3-6.8,14.9-10.7l8.5,8.5V188.1z"/>
		<g>
			<polygon class="st14" points="476.3,394.2 423.3,394.2 410,372.6 414,370.2 425.9,389.5 473.7,389.5 485.5,370.2 489.5,372.6 			
				"/>
		</g>
	</g>
	<path class="st12" d="M532.9,284.8"/>
	<g class="st1">
		<path class="st15" d="M536.6,245.6l-14.9-27.1l-32.6-17.6l-2.2,4.1l31.4,16.9l13,23.7h-34.6c-1.8-1.3-4.3-3.1-6.8-4.5l-2.4,4
			c2.2,1.3,4.5,2.9,6.2,4.1v32.1h42.9L536.6,245.6L536.6,245.6z"/>
		<path class="st15" d="M532.9,309.2L532.9,309.2L532.9,309.2L532.9,309.2L532.9,309.2h-36.7l-0.7,0.6c-2.4,2.3-5,4.6-7.7,6.8
			c-8,5.9-21.3,13-39.6,13c-7.4,0-14.2-1.7-20.1-4.9c-4.3-2.3-8.1-5.5-11.5-9.4c-0.7-0.9-1.5-1.8-2.2-2.7c-1.1-1.4-2.1-3-3-4.6
			c-2.1-3.6-3.7-7.4-4.9-11.4l0,0c-1.4-4.6-2.1-9.2-2.1-13.5c0-8.3,2.3-16.5,6.6-23.8l-4-2.4c-4.7,8-7.2,17.1-7.2,26.1
			c0,4.7,0.8,9.8,2.3,14.8v0c1.3,4.3,3.1,8.5,5.3,12.4c1,1.7,2.1,3.4,3.3,5c0.8,1,1.6,2.1,2.4,3c3.7,4.3,8,7.8,12.8,10.4
			c6.7,3.7,14.2,5.5,22.4,5.5c19.5,0,33.8-7.6,42.5-14c2.6-2.1,5-4.2,7.4-6.4h31.3c-5.3,11.1-26.4,47.4-75.3,47.4
			c-56.8,0-76.3-50.1-76.4-50.6l-0.1-0.2c-0.3-0.6-28.8-60.4,34.2-102.5l-2.6-3.9c-34.6,23.1-42.5,51.4-43.1,71c0,0.9,0,1.9,0,2.8h0
			v35.4c0,5.5,1.2,11,3.4,15.9l0.2,0.4c1.1,2.7,23,56.3,85,56.3c46.4,0,70.2-29.2,80.3-46.6l0,0h0.3v-30L532.9,309.2L532.9,309.2z"
			/>
	</g>
	<path class="st16" d="M487.6,207.2l7.3-5.7L484,190.2l-1.5,1.4L416,207.4l-4.2-3.3l0,0l-0.2-0.2l5-5.2l25.6-6.1l-1.1-4.5l-25.2,6
		l-6.4-5l-2.9,3.7l5.3,4.1l-7.3,7.6l7.3,5.7l-7.3,7.6l7.3,5.7l-7.3,7.6l7.3,5.7l-7.3,7.6l7.3,5.7l-7.3,7.6l7.3,5.7l-7.3,7.6l7.3,5.7
		l-7.3,7.6l7.3,5.7l-7.3,7.6l7.3,5.7l-4.2,4.4l3.4,3.2l5.5-5.7l66.7-15.8l4.6,4.8l-4.9,3.8l-68.2,16.2l1.1,4.5l67.4-16l4.6,4.8
		l-4.9,3.8l-56.7,13.4l1.1,4.5l55.9-13.2l4.2,4.3l3.3-3.2l-3.3-3.4l7.3-5.7l-7.3-7.6l7.3-5.7l-7.3-7.6l7.3-5.7l-7.3-7.6l7.3-5.7
		l-7.3-7.6l7.3-5.7l-7.3-7.6l2.6-2.1h0l4.7-3.6l-7.3-7.6l7.3-5.7l-7.3-7.6l7.3-5.7L487.6,207.2z M416.6,212l66.7-15.8l4.6,4.8
		l-4.9,3.8L416,220.7l-4.4-3.4L416.6,212z M416.6,225.3l66.7-15.8l4.6,4.8l-4.9,3.8L416,234l-4.4-3.4L416.6,225.3z M483.1,284.5
		L416,300.3l-4.4-3.4l5-5.2l66.7-15.8l4.6,4.8L483.1,284.5z M483.1,271.2L416,287.1l-4.4-3.4l5-5.2l66.7-15.8l4.6,4.8L483.1,271.2z
		 M483.1,257.9L416,273.8l-4.4-3.4l5-5.2l66.7-15.8l4.6,4.8L483.1,257.9z M483.1,244.6L416,260.5l-4.4-3.4l5-5.2l57.1-13.5l9.6-2.3
		l4.6,4.8L483.1,244.6z M483.1,231.3l-10.4,2.5L416,247.2l-4.4-3.4l5-5.2l66.7-15.8l4.6,4.8L483.1,231.3z"/>
	<g class="st1">
		<path class="st15" d="M535.2,309.2h-2.3v0h0l0,0h0v0h-36.7l-0.7,0.6c-2.4,2.3-5,4.6-7.7,6.8c-8,5.9-21.3,13-39.6,13
			c-7.4,0-14.2-1.7-20.1-4.9c-4.3-2.3-8.1-5.5-11.5-9.4c-0.7-0.9-1.5-1.8-2.2-2.7c-1.1-1.4-2.1-3-3-4.6c-2.1-3.6-3.7-7.4-4.9-11.4
			l0,0c-0.2-0.7-0.4-1.4-0.5-2.1h-4.8c0.3,1.1,0.5,2.3,0.9,3.4v0c1.3,4.3,3.1,8.5,5.3,12.4c1,1.7,2.1,3.4,3.3,5c0.8,1,1.6,2.1,2.4,3
			c3.7,4.3,8,7.8,12.8,10.4c6.7,3.7,14.2,5.5,22.4,5.5c19.5,0,33.8-7.6,42.5-14c2.6-2.1,5-4.2,7.4-6.4h31.3
			c-5.3,11.1-26.4,47.4-75.3,47.4c-56.8,0-76.3-50.1-76.4-50.6l-0.1-0.2c-0.1-0.2-3-6.3-5-16H366v18.8c0,5.5,1.2,11,3.4,15.9
			l0.2,0.4c1.1,2.7,23,56.3,85,56.3c46.4,0,70.2-29.2,80.3-46.6l0,0h0.3V309.2z"/>
	</g>
</g>
</svg>
