<?xml version="1.0" encoding="utf-8"?>
<!-- Generator: Adobe Illustrator 26.0.0, SVG Export Plug-In . SVG Version: 6.00 Build 0)  -->
<svg version="1.1" xmlns="http://www.w3.org/2000/svg" xmlns:xlink="http://www.w3.org/1999/xlink" x="0px" y="0px"
	 viewBox="0 0 841.9 595.3" style="enable-background:new 0 0 841.9 595.3;" xml:space="preserve">
<style type="text/css">
	.st0{display:none;}
	.st1{fill:#FFFFFF;}
	.st2{fill:#C6162C;}
	.st3{fill:#FFDE00;}
	.st4{display:inline;}
	.st5{fill:#2C398C;}
	.st6{fill:none;stroke:#E6007E;stroke-width:5;stroke-miterlimit:10;}
	.st7{display:inline;fill:none;stroke:#E5087E;stroke-width:7;stroke-miterlimit:10;}
	.st8{display:inline;fill:#E6007E;stroke:#E5087E;stroke-width:3;stroke-miterlimit:10;}
	.st9{display:inline;fill:none;stroke:#E5087E;stroke-width:4;stroke-miterlimit:10;}
	.st10{display:inline;fill:none;stroke:#E6007E;stroke-miterlimit:10;}
	.st11{display:inline;fill:#FFFFFF;stroke:#E6007E;stroke-miterlimit:10;}
</style>
<g id="Capa_1" class="st0">
	
		<image style="display:inline;overflow:visible;" width="585" height="174" xlink:href="46510925.jpg"  transform="matrix(1.3186 0 0 1.3186 37.3732 193.0127)">
	</image>
</g>
<g id="Layer_4">
	<g>
		<g>
			<path class="st1" d="M475.7,198.3c7.4-0.4,21.8-6.6,25.4-17.8c2.4-7.4,0.5-17-1.1-21.5c-1.1-3.1-4.2-5-7.5-4.4
				c-4,0.8-8.4,3.8-17,12.9C458.7,185.8,468.3,198.7,475.7,198.3z"/>
			<path class="st1" d="M795.9,237c-8,22.6-22.3,31.5-29.7,26.4c-6.5-4.5,2.7-29,5.9-37.1c0.9-2.2,1.7-4.5,2.2-6.8
				c7.5-30-11.1-32.4-26-33.4c-15.6-1-42.3,27.8-51.1,35.5c-8.8,7.6-10.2,0.6-10.8-13.2c-0.6-13.8-1.2-18.2-18.2-18.6
				c-17-0.4-32.5,11.8-37.9,15.2c-5.4,3.4-11.2,1.6-11.2,1.6s-21-8.2-49.5-7c-28.4,1.2-50.9,23.2-70.5,46.3
				c-19.6,23-23.5,12-21.3-8.6c2.2-20.6,1.3-26.2-9-29.2c-4.7-1.4-11.4,1.4-17.4,4.7c-6.4,3.6-12.2,8.3-17.3,13.5
				c-8.1,8.3-25.8,25.5-39.6,32.2c-18.6,9-21.6,1.2-22.2-21.6c-0.6-22.8,3.2-27.6-13.6-29.2c-16.8-1.6-47.5,37.9-57.3,43.5
				c-9.8,5.6-9.6-13.2-9.6-13.2c1.6-29.2,0.2-29-6.6-32.7c-6.8-3.6-21.4,15.2-21.4,15.2s-58.3,53.9-66.5,47.5
				c-8.2-6.4,1.2-26.6,12.6-50.1c11.4-23.4,5.6-35.1-1.4-40.5c-7-5.4-17.2,2.8-21.4,13.4c-1.7,4.3-3.6,8.6-5.2,12.2
				c-4.2,9.2-9.8,17.6-16.8,24.8c-5.3,5.4-11.7,10.5-18.4,12.3c-16,4.2-15.6-5.2-8.2-27c7.4-21.8,19.2-35.5,3.6-47.3
				c-15.6-11.8-46.5,13.7-64.9,23.4c-22,11.6-13.4,17.2-13.4,17.2c4.7,6,14.6-2,22.2-0.9s-7.6,31-15.2,51s-12.4,34.9,2.8,51.2
				c15.2,16.3,39-4.5,39-4.5s33.6-19.6,47-23.4c13.4-3.8,6.8,9.6,6.8,9.6s-5,14.4,1.8,21.4c6.8,7,18.2-4,18.2-4
				c19.6-6.6,44.1-30.7,54.9-37.9c10.8-7.2,12.2-1,12.2-1s3.8,21.8,6,36.7s16.2,6.8,16.2,6.8s36.9-30.9,45.4-36.8
				c8.5-5.9,9,0.8,9,0.8s1.4,19.2,8.5,31.5c7.1,12.2,17.5,3.1,17.5,3.1l45.8-29.3c10.7-7.2,17.6-12.7,18.2,4.1
				c0.6,20.2,0.3,38.7,28.6,20.8c32.9-20.8,40.5-24.7,40.5-24.7c12.4-4.8,10.5,6.2,10.5,6.2c-0.8,20.6,14.6,24,14.6,24
				c21.8,8.8,48.1-10.2,48.1-10.2l57-40.1c1.1-0.8,2.7,0.1,2.6,1.5c-3.5,45.5,1.1,52,8.1,50.8c7.2-1.2,18.2-11.7,36.5-32.9
				c7.7-9,12.8-13.4,16.2-15.5c2.5-1.6,5.7,0.3,5.6,3.2c-0.5,21,5.4,35.3,13.8,42.2c9,7.4,25.6-1,25.6-1s29.7-17.6,54.3-38.1
				C806.7,250.7,795.9,237,795.9,237z M582.5,241.5c-2.3,7.4-11.7,11.5-16.5,11.7c-4.8,0.3-11.1-8.3,0-20.2c5.5-6,8.4-8,11-8.5
				c2.1-0.4,4.1,0.9,4.8,2.9C582.8,230.4,584,236.7,582.5,241.5z"/>
			<path class="st1" d="M589.5,187.9c0,0,2.4,2.7,17.1-8.9c14.7-11.6,10.8-22.7,0.8-22.7c-8.7,0-13.5,6.9-9.2,13.7
				C603,177.7,584.1,183.6,589.5,187.9z"/>
		</g>
		<g>
			<path class="st2" d="M472,196.6c7.4-0.4,21.8-6.6,25.4-17.8c2.4-7.4,0.5-17-1.1-21.5c-1.1-3.1-4.2-5-7.5-4.4
				c-4,0.8-8.4,3.8-17,12.9C454.9,184,464.6,197,472,196.6z"/>
			<path class="st2" d="M788.5,231c-8,22.6-22.3,31.5-29.7,26.4c-6.5-4.5,2.7-29,5.9-37.1c0.9-2.2,1.7-4.5,2.2-6.8
				c7.5-30-11.1-32.4-26-33.4c-15.6-1-42.3,27.8-51.1,35.5c-8.8,7.6-10.2,0.6-10.8-13.2c-0.6-13.8-1.2-18.2-18.2-18.6
				S628.5,195.6,623,199c-5.4,3.4-11.2,1.6-11.2,1.6s-21-8.2-49.5-7c-28.4,1.2-50.9,23.2-70.5,46.3c-19.6,23-23.5,12-21.3-8.6
				c2.2-20.6,1.3-26.2-9-29.2c-4.7-1.4-11.4,1.4-17.4,4.7c-6.4,3.6-12.2,8.3-17.3,13.5c-8.1,8.3-25.8,25.5-39.6,32.2
				c-18.6,9-21.6,1.2-22.2-21.6c-0.6-22.8,3.2-27.6-13.6-29.2c-16.8-1.6-47.5,37.9-57.3,43.5c-9.8,5.6-9.6-13.2-9.6-13.2
				c1.6-29.2,0.2-29-6.6-32.7c-6.8-3.6-21.4,15.2-21.4,15.2s-58.3,53.9-66.5,47.5c-8.2-6.4,1.2-26.6,12.6-50.1
				c11.4-23.4,5.6-35.1-1.4-40.5c-7-5.4-17.2,2.8-21.4,13.4c-1.7,4.3-3.6,8.6-5.2,12.2c-4.2,9.2-9.8,17.6-16.8,24.8
				c-5.3,5.4-11.7,10.5-18.4,12.3c-16,4.2-15.6-5.2-8.2-27c7.4-21.8,19.2-35.5,3.6-47.3c-15.6-11.8-46.5,13.7-64.9,23.4
				c-22,11.6-13.4,17.2-13.4,17.2c4.7,6,14.6-2,22.2-0.9s-7.6,31-15.2,51s-12.4,34.9,2.8,51.2c15.2,16.3,39-4.5,39-4.5
				s33.6-19.6,47-23.4c13.4-3.8,6.8,9.6,6.8,9.6s-5,14.4,1.8,21.4c6.8,7,18.2-4,18.2-4c19.6-6.6,44.1-30.7,54.9-37.9
				c10.8-7.2,12.2-1,12.2-1s3.8,21.8,6,36.7c2.2,14.8,16.2,6.8,16.2,6.8s36.9-30.9,45.4-36.8c8.5-5.9,9,0.8,9,0.8s1.4,19.2,8.5,31.5
				c7.1,12.2,17.5,3.1,17.5,3.1l45.8-29.3c10.7-7.2,17.6-12.7,18.2,4.1c0.6,20.2,0.3,38.7,28.6,20.8c32.9-20.8,40.5-24.7,40.5-24.7
				c12.4-4.8,10.5,6.2,10.5,6.2c-0.8,20.6,14.6,24,14.6,24c21.8,8.8,48.1-10.2,48.1-10.2l57-40.1c1.1-0.8,2.7,0.1,2.6,1.5
				c-3.5,45.5,1.1,52,8.1,50.8c7.2-1.2,18.2-11.7,36.5-32.9c7.7-9,12.8-13.4,16.2-15.5c2.5-1.6,5.7,0.3,5.6,3.2
				c-0.5,21,5.4,35.3,13.8,42.2c9,7.4,25.6-1,25.6-1s29.7-17.6,54.3-38.1C799.3,244.7,788.5,231,788.5,231z M575.1,235.5
				c-2.3,7.4-11.7,11.5-16.5,11.7c-4.8,0.3-11.1-8.3,0-20.2c5.5-6,8.4-8,11-8.5c2.1-0.4,4.1,0.9,4.8,2.9
				C575.4,224.4,576.6,230.7,575.1,235.5z"/>
			<path class="st2" d="M585.7,186.1c0,0,2.4,2.7,17.1-8.9c14.7-11.6,10.8-22.7,0.8-22.7c-8.7,0-13.5,6.9-9.2,13.7
				C599.2,175.9,580.4,181.8,585.7,186.1z"/>
		</g>
	</g>
	<g>
		<polygon class="st3" points="54.6,58.1 73.6,58.1 73.6,125.5 88.1,125.5 88.1,58.1 107.1,58.1 107.1,43.6 54.6,43.6 		"/>
		<polygon class="st3" points="328.7,93.1 304.1,43.6 299.4,43.6 299.4,43.6 288.7,43.6 288.7,125.5 303.2,125.5 303.2,75.7 
			328.6,125.5 328.7,125.5 333.4,125.5 343.2,125.5 343.2,43.6 328.7,43.6 		"/>
		<rect x="368.6" y="43.6" class="st3" width="14.5" height="81.9"/>
		<rect x="700.1" y="43.5" class="st3" width="14.5" height="82.1"/>
		<polygon class="st3" points="422.5,43.6 408,43.6 408,125.6 455.4,125.6 455.4,111.1 422.5,111.1 		"/>
		<polygon class="st3" points="491.7,43.6 477.2,43.6 477.2,125.6 524.6,125.6 524.6,111.1 491.7,111.1 		"/>
		<polygon class="st3" points="549,44.5 549,104 549,125.6 596.3,125.6 596.3,111.1 563.5,111.1 563.5,104 563.5,89.7 596.3,89.7 
			596.3,75.2 563.5,75.2 563.5,58.1 596.3,58.1 596.3,43.6 549,43.6 		"/>
		<path class="st3" d="M155.4,41.1c-18.4,0-32.8,18.9-32.8,43.1s14.4,43.1,32.8,43.1s32.8-18.9,32.8-43.1S173.9,41.1,155.4,41.1z
			 M155.4,112.9c-9.9,0-18.3-13.1-18.3-28.6s8.4-28.6,18.3-28.6c9.9,0,18.3,13.1,18.3,28.6S165.4,112.9,155.4,112.9z"/>
		<path class="st3" d="M265.6,67.8c0-13.3-10.8-24.1-24.1-24.1h-30.2v0.9v47.3v33.7h14.5V91.9h8.9c5.1,6.9,14.1,20.2,19.2,33.7h15.3
			c-4.2-13.4-12-26.6-18.2-35.7C259.6,86.1,265.6,77.6,265.6,67.8z M241.5,77.4h-15.6V58.1h15.6c5.3,0,9.6,4.3,9.6,9.6
			S246.8,77.4,241.5,77.4z"/>
		<path class="st3" d="M636.8,91.9h8.9c5.1,6.9,14.1,20.2,19.2,33.7h15.3c-4.2-13.4-12-26.6-18.2-35.7c8.5-3.7,14.5-12.2,14.5-22.1
			c0-13.3-10.8-24.1-24.1-24.1h-30.2v0.9v47.3v33.7h14.5V91.9z M636.8,58.1h15.6c5.3,0,9.6,4.3,9.6,9.6s-4.3,9.6-9.6,9.6h-15.6V58.1
			z"/>
		<path class="st3" d="M754.2,105.8h23.2l5.7,19.8h15.1l-23.6-81.9H757l-23.6,81.9h15.1L754.2,105.8z M765.8,65.4l7.5,25.9h-14.9
			L765.8,65.4z"/>
	</g>
</g>
<g id="Layer_3" class="st0">
	
		<image style="display:inline;overflow:visible;" width="249" height="281" xlink:href="46510927.jpg"  transform="matrix(0.75 0 0 0.75 560.2798 140.4175)">
	</image>
</g>
<g id="Capa_2" class="st0">
	<g class="st4">
		<g>
			<path class="st1" d="M611.1,732.1c5-0.3,14.6-4.4,17.1-12c1.6-5,0.3-11.4-0.7-14.4c-0.7-2.1-2.8-3.4-5-3
				c-2.7,0.5-5.7,2.6-11.4,8.7C599.7,723.7,606.1,732.4,611.1,732.1z"/>
			<path class="st1" d="M825.7,758c-5.4,15.2-15,21.1-19.9,17.7c-4.4-3,1.8-19.5,4-24.9c0.6-1.5,1.1-3,1.5-4.6
				c5-20.1-7.4-21.8-17.4-22.4c-10.5-0.7-28.3,18.7-34.2,23.8c-5.9,5.1-6.8,0.4-7.3-8.9c-0.4-9.3-0.8-12.2-12.2-12.5
				c-11.4-0.3-21.8,7.9-25.4,10.2c-3.6,2.3-7.5,1.1-7.5,1.1s-14.1-5.5-33.2-4.7c-19.1,0.8-34.1,15.6-47.3,31
				c-13.2,15.4-15.8,8.1-14.3-5.8c1.5-13.8,0.8-17.6-6-19.6c-3.1-0.9-7.7,0.9-11.6,3.2c-4.3,2.4-8.2,5.5-11.6,9.1
				c-5.4,5.6-17.3,17.1-26.6,21.6c-12.5,6-14.5,0.8-14.9-14.5c-0.4-15.3,2.1-18.5-9.1-19.6c-11.3-1.1-31.8,25.4-38.4,29.1
				c-6.6,3.8-6.4-8.9-6.4-8.9c1.1-19.6,0.1-19.5-4.4-21.9c-4.6-2.4-14.4,10.2-14.4,10.2s-39.1,36.1-44.6,31.8
				c-5.5-4.3,0.8-17.9,8.5-33.6c7.7-15.7,3.8-23.5-0.9-27.1c-4.7-3.6-11.6,1.9-14.4,9c-1.1,2.9-2.4,5.7-3.5,8.2
				c-2.8,6.1-6.6,11.8-11.3,16.7c-3.5,3.6-7.9,7-12.4,8.2c-10.7,2.8-10.5-3.5-5.5-18.1c5-14.6,12.9-23.8,2.4-31.7
				c-10.5-7.9-31.2,9.2-43.5,15.7c-14.8,7.8-9,11.6-9,11.6c3.1,4,9.8-1.3,14.9-0.6c5.1,0.7-5.1,20.8-10.2,34.2
				c-5.1,13.4-8.3,23.4,1.9,34.3c10.2,10.9,26.1-3,26.1-3s22.5-13.1,31.5-15.7c9-2.6,4.6,6.4,4.6,6.4s-3.4,9.7,1.2,14.4
				c4.6,4.7,12.2-2.7,12.2-2.7c13.2-4.4,29.5-20.5,36.8-25.4c7.3-4.8,8.2-0.7,8.2-0.7s2.6,14.6,4,24.6c1.5,9.9,10.9,4.6,10.9,4.6
				s24.7-20.7,30.4-24.6c5.7-4,6,0.5,6,0.5s0.9,12.9,5.7,21.1c4.8,8.2,11.8,2.1,11.8,2.1l30.7-19.7c7.1-4.9,11.8-8.5,12.2,2.8
				c0.4,13.5,0.2,26,19.2,14c22.1-13.9,27.2-16.6,27.2-16.6c8.3-3.2,7,4.2,7,4.2c-0.5,13.8,9.8,16.1,9.8,16.1
				c14.6,5.9,32.2-6.8,32.2-6.8l38.2-26.9c0.8-0.5,1.8,0.1,1.7,1c-2.3,30.5,0.7,34.8,5.4,34.1c4.8-0.8,12.2-7.8,24.4-22.1
				c5.2-6,8.6-9,10.9-10.4c1.7-1.1,3.8,0.2,3.8,2.2c-0.4,14.1,3.6,23.6,9.3,28.3c6,5,17.2-0.7,17.2-0.7s19.9-11.8,36.4-25.5
				C833,767.2,825.7,758,825.7,758z M682.7,761.1c-1.6,4.9-7.8,7.7-11,7.9c-3.2,0.2-7.4-5.5,0-13.6c3.7-4,5.6-5.4,7.4-5.7
				c1.4-0.3,2.8,0.6,3.2,2C682.9,753.6,683.7,757.8,682.7,761.1z"/>
			<path class="st1" d="M687.3,725.1c0,0,1.6,1.8,11.5-6c9.8-7.8,7.3-15.2,0.5-15.2c-5.8,0-9,4.6-6.2,9.2
				C696.4,718.3,683.8,722.2,687.3,725.1z"/>
		</g>
		<g>
			<path class="st2" d="M608.6,730.9c5-0.3,14.6-4.4,17.1-12c1.6-5,0.3-11.4-0.7-14.4c-0.7-2.1-2.8-3.4-5-3
				c-2.7,0.5-5.7,2.6-11.4,8.7C597.1,722.5,603.6,731.2,608.6,730.9z"/>
			<path class="st2" d="M820.8,754c-5.4,15.2-15,21.1-19.9,17.7c-4.4-3,1.8-19.5,4-24.9c0.6-1.5,1.1-3,1.5-4.6
				c5-20.1-7.4-21.8-17.4-22.4c-10.5-0.7-28.3,18.7-34.2,23.8c-5.9,5.1-6.8,0.4-7.3-8.9c-0.4-9.3-0.8-12.2-12.2-12.5
				c-11.4-0.3-21.8,7.9-25.4,10.2c-3.6,2.3-7.5,1.1-7.5,1.1s-14.1-5.5-33.2-4.7c-19.1,0.8-34.1,15.6-47.3,31
				c-13.2,15.4-15.8,8.1-14.3-5.8c1.5-13.8,0.8-17.6-6-19.6c-3.1-0.9-7.7,0.9-11.6,3.2c-4.3,2.4-8.2,5.5-11.6,9.1
				c-5.4,5.6-17.3,17.1-26.6,21.6c-12.5,6-14.5,0.8-14.9-14.5c-0.4-15.3,2.1-18.5-9.1-19.6s-31.8,25.4-38.4,29.1
				c-6.6,3.8-6.4-8.9-6.4-8.9c1.1-19.6,0.1-19.5-4.4-21.9c-4.6-2.4-14.4,10.2-14.4,10.2S425,779,419.5,774.7
				c-5.5-4.3,0.8-17.9,8.5-33.6c7.7-15.7,3.8-23.5-0.9-27.1c-4.7-3.6-11.6,1.9-14.4,9c-1.1,2.9-2.4,5.7-3.5,8.2
				c-2.8,6.1-6.6,11.8-11.3,16.7c-3.5,3.6-7.9,7-12.4,8.2c-10.7,2.8-10.5-3.5-5.5-18.1s12.9-23.8,2.4-31.7
				c-10.5-7.9-31.2,9.2-43.5,15.7c-14.8,7.8-9,11.6-9,11.6c3.1,4,9.8-1.3,14.9-0.6c5.1,0.7-5.1,20.8-10.2,34.2
				c-5.1,13.4-8.3,23.4,1.9,34.3c10.2,10.9,26.1-3,26.1-3s22.5-13.1,31.5-15.7c9-2.6,4.6,6.4,4.6,6.4s-3.4,9.7,1.2,14.4
				c4.6,4.7,12.2-2.7,12.2-2.7c13.2-4.4,29.5-20.5,36.8-25.4c7.3-4.8,8.2-0.7,8.2-0.7s2.6,14.6,4,24.6c1.5,9.9,10.9,4.6,10.9,4.6
				s24.7-20.7,30.4-24.6c5.7-4,6,0.5,6,0.5s0.9,12.9,5.7,21.1c4.8,8.2,11.8,2.1,11.8,2.1l30.7-19.7c7.1-4.9,11.8-8.5,12.2,2.8
				c0.4,13.5,0.2,26,19.2,14c22.1-13.9,27.2-16.6,27.2-16.6c8.3-3.2,7,4.2,7,4.2c-0.5,13.8,9.8,16.1,9.8,16.1
				c14.6,5.9,32.2-6.8,32.2-6.8l38.2-26.9c0.8-0.5,1.8,0.1,1.7,1c-2.3,30.5,0.7,34.8,5.4,34.1c4.8-0.8,12.2-7.8,24.4-22.1
				c5.2-6,8.6-9,10.9-10.4c1.7-1.1,3.8,0.2,3.8,2.2c-0.4,14.1,3.6,23.6,9.3,28.3c6,5,17.2-0.7,17.2-0.7s19.9-11.8,36.4-25.5
				C828,763.1,820.8,754,820.8,754z M677.7,757c-1.6,4.9-7.8,7.7-11,7.9c-3.2,0.2-7.4-5.5,0-13.6c3.7-4,5.6-5.4,7.4-5.7
				c1.4-0.3,2.8,0.6,3.2,2C677.9,749.5,678.8,753.8,677.7,757z"/>
			<path class="st2" d="M684.8,723.9c0,0,1.6,1.8,11.5-6c9.8-7.8,7.3-15.2,0.5-15.2c-5.8,0-9,4.6-6.2,9.2
				C693.9,717.1,681.3,721,684.8,723.9z"/>
		</g>
	</g>
	<g class="st4">
		<polygon class="st3" points="328.8,638.1 341.5,638.1 341.5,683.3 351.2,683.3 351.2,638.1 363.9,638.1 363.9,628.4 328.8,628.4 
					"/>
		<polygon class="st3" points="512.5,661.5 496,628.3 492.9,628.3 492.9,628.3 485.7,628.3 485.7,683.3 495.5,683.3 495.5,649.9 
			512.4,683.3 512.5,683.3 515.7,683.3 522.2,683.3 522.2,628.3 512.5,628.3 		"/>
		<rect x="539.3" y="628.4" class="st3" width="9.7" height="54.9"/>
		<rect x="761.5" y="628.3" class="st3" width="9.7" height="55"/>
		<polygon class="st3" points="575.4,628.4 565.7,628.4 565.7,683.3 597.4,683.3 597.4,673.6 575.4,673.6 		"/>
		<polygon class="st3" points="621.8,628.4 612.1,628.4 612.1,683.3 643.8,683.3 643.8,673.6 621.8,673.6 		"/>
		<polygon class="st3" points="660.2,629 660.2,668.8 660.2,683.3 691.9,683.3 691.9,673.6 669.9,673.6 669.9,668.8 669.9,659.2 
			691.9,659.2 691.9,649.5 669.9,649.5 669.9,638.1 691.9,638.1 691.9,628.4 660.2,628.4 		"/>
		<path class="st3" d="M396.4,626.7c-12.3,0-22,12.7-22,28.9c0,16.2,9.7,28.9,22,28.9s22-12.7,22-28.9
			C418.4,639.4,408.7,626.7,396.4,626.7z M396.4,674.8c-6.7,0-12.3-8.8-12.3-19.2c0-10.4,5.6-19.2,12.3-19.2s12.3,8.8,12.3,19.2
			C408.7,666,403,674.8,396.4,674.8z"/>
		<path class="st3" d="M470.2,644.5c0-8.9-7.3-16.2-16.2-16.2h-20.2v0.6v31.7v22.6h9.7v-22.6h6c3.4,4.6,9.5,13.5,12.9,22.6h10.3
			c-2.8-9-8.1-17.8-12.2-24C466.2,656.9,470.2,651.2,470.2,644.5z M454,651h-10.5v-12.9H454c3.6,0,6.4,2.9,6.4,6.4
			C460.5,648.1,457.6,651,454,651z"/>
		<path class="st3" d="M719.1,660.7h6c3.4,4.6,9.5,13.5,12.9,22.6h10.3c-2.8-9-8.1-17.8-12.2-24c5.7-2.5,9.7-8.2,9.7-14.8
			c0-8.9-7.3-16.2-16.2-16.2h-20.2v0.6v31.7v22.6h9.7V660.7z M719.1,638.1h10.5c3.6,0,6.4,2.9,6.4,6.4c0,3.6-2.9,6.4-6.4,6.4h-10.5
			V638.1z"/>
		<path class="st3" d="M797.8,670.1h15.6l3.8,13.2h10.1l-15.8-54.9h-11.8l-15.8,54.9H794L797.8,670.1z M805.6,643l5,17.4h-10
			L805.6,643z"/>
	</g>
	<g class="st4">
		<polygon class="st5" points="239.4,387.8 186.4,387.8 173.2,366.2 177.2,363.7 189,383.1 236.8,383.1 248.7,363.7 252.7,366.2 		
			"/>
	</g>
	
		<image style="display:inline;overflow:visible;" width="249" height="281" xlink:href="46510922.jpg"  transform="matrix(0.75 0 0 0.75 873.1472 301.5237)">
	</image>
	<g class="st4">
		<line class="st6" x1="642.7" y1="168" x2="623.4" y2="168"/>
		<line class="st6" x1="677" y1="168" x2="642.7" y2="168"/>
		<polyline class="st6" points="614.3,126.7 616,126.7 649.5,126.7 		"/>
		<polyline class="st6" points="676.7,168 698.5,168 698.5,139.2 687.7,126.7 614.3,126.7 		"/>
		<polyline class="st6" points="616,126.7 602.8,139.6 602.8,168 623.4,168 		"/>
		<path class="st6" d="M626.4,139.6c0,0,6.6-11.6,23.4-12"/>
		<line class="st6" x1="627.8" y1="137.7" x2="627.5" y2="168"/>
		<path class="st6" d="M672.3,168v-29.9c0,0-5.6-10.1-22.5-10.4"/>
		<path class="st6" d="M627.5,138.1c0,0-5-7.1-13.2-10.8"/>
		<line class="st6" x1="610.6" y1="128.8" x2="610.6" y2="128.8"/>
		<path class="st6" d="M687.4,127.8c-8.2,3.7-15.1,10.3-15.1,10.3"/>
	</g>
	<path class="st7" d="M910.3,109l-0.8,2.1l-36.1,23l-2.3-4.7l0,0l-0.1-0.2l2.7-7.6l13.9-8.9l-0.6-6.6l-13.7,8.7l-3.5-7.3l-1.6,5.4
		l2.9,6l-4,11.1l4,8.3l-4,11.1l4,8.3l-4,11.1l4,8.3l-4,11.1l4,8.3l-4,11.1l4,8.3l-3.4,9.6h3.5l2.5-6.9l36.2-23.1l2.5,7l-2.6,5.5
		l-27.4,17.5h10.9l16.6-10.6l2.5,7l-1.7,3.6h4.1l1.4-2.9l-4-11.1l4-8.3l-4-11.1l1.4-3h0l2.5-5.3l-4-11.1l4-8.3l-4-11.1l4-8.3
		l-4-11.1l4-8.3L910.3,109z M912.5,182.9l-2.6,5.5l-36.4,23.2l-2.4-5l2.7-7.6l31-19.8l5.2-3.3L912.5,182.9z M912.5,163.5l-2.6,5.5
		l-5.6,3.6l-30.8,19.6l-2.4-5l2.7-7.6l36.2-23.1L912.5,163.5z M912.5,144.2l-2.6,5.5l-36.4,23.2l-2.4-5l2.7-7.6l36.2-23.1
		L912.5,144.2z M909.8,130.3l-36.4,23.2l-2.4-5l2.7-7.6l36.2-23.1l2.5,7L909.8,130.3z"/>
	<path class="st8" d="M778.3,320.9l0.8-1.4l34.8-15.5l2.2,3.2l0,0l0.1,0.2l-2.6,5.2l-13.4,6l0.6,4.5l13.2-5.9l3.4,4.9l1.5-3.6
		l-2.8-4l3.8-7.5l-3.8-5.6l3.8-7.5l-3.8-5.6l3.8-7.5l-3.8-5.6l3.8-7.5l-3.8-5.6l3.8-7.5l-3.8-5.6l3.3-6.5h-3.4l-2.4,4.6l-34.9,15.6
		l-2.4-4.7l2.5-3.7l26.4-11.8h-10.5l-16,7.1l-2.4-4.7l1.7-2.4h-3.9l-1.3,1.9l3.8,7.5l-3.8,5.6l3.8,7.5l-1.4,2h0l-2.4,3.6l3.8,7.5
		l-3.8,5.6l3.8,7.5l-3.8,5.6l3.8,7.5l-3.8,5.6L778.3,320.9z M776.2,271.1l2.5-3.7l35.1-15.6l2.3,3.4l-2.6,5.2l-29.9,13.3l-5,2.2
		L776.2,271.1z M776.2,284.2l2.5-3.7l5.4-2.4l29.6-13.2l2.3,3.4l-2.6,5.2l-34.9,15.6L776.2,284.2z M776.2,297.2l2.5-3.7l35.1-15.6
		l2.3,3.4l-2.6,5.2l-34.9,15.6L776.2,297.2z M778.8,306.6l35.1-15.6l2.3,3.4l-2.6,5.2L778.6,315l-2.4-4.7L778.8,306.6z"/>
	<rect x="759.1" y="81.5" class="st9" width="57.1" height="94.5"/>
	<polygon class="st10" points="630.1,202.3 630.1,212.4 633,214.3 630.1,216 630.1,225.6 633,226.4 630.1,228.1 630.1,237.6 
		633,239.7 630.1,241 630.1,251.9 633,253.3 630.1,254.6 630.1,265.3 633,266.4 630.1,268 630.1,289.4 667.1,289.4 672.7,272.3 
		672.7,257.1 669.6,255.7 672.7,254.7 672.7,242.9 669.9,241.7 672.7,240.1 672.7,229.7 670.4,228.6 672.7,226.9 672.7,202.3 
		637.4,202.3 	"/>
	<polygon class="st11" points="512,156.3 512,166.4 514.9,168.3 512,170 512,179.5 514.9,180.4 512,182.1 512,191.5 514.9,193.7 
		512,195 512,205.8 514.9,207.3 512,208.5 512,219.3 514.9,220.4 512,222 512,243.4 549,243.4 554.6,226.3 554.6,211.1 551.4,209.7 
		554.6,208.7 554.6,196.8 551.7,195.7 554.6,194.1 554.6,183.7 552.3,182.5 554.6,180.8 554.6,156.3 519.3,156.3 	"/>
	<polygon class="st11" points="512,156.3 512,166.4 514.9,168.3 512,170 512,179.5 514.9,180.4 512,182.1 512,191.5 514.9,193.7 
		512,195 512,205.8 514.9,207.3 512,208.5 512,219.3 514.9,220.4 512,222 512,243.4 549,243.4 554.6,226.3 554.6,211.1 551.4,209.7 
		554.6,208.7 554.6,196.8 551.7,195.7 554.6,194.1 554.6,183.7 552.3,182.5 554.6,180.8 554.6,156.3 519.3,156.3 	"/>
	<polygon class="st10" points="520.2,163.6 520,156.2 544,156.2 	"/>
	<polygon class="st10" points="520,169.5 520,176.6 548.2,167.8 548.2,161.1 	"/>
	<polygon class="st10" points="520,181.9 520,189 548.2,180.2 548.2,173.5 	"/>
	<polygon class="st10" points="520,195.2 520,202.3 548.2,193.5 548.2,186.7 	"/>
	<polygon class="st10" points="520,222.2 520,229.3 548.2,220.4 548.2,213.7 	"/>
	<polygon class="st10" points="520,208.5 520,215.6 548.2,206.7 548.2,200 	"/>
</g>
</svg>
